<svg width="288" height="125" viewBox="0 0 288 125" fill="none" xmlns="http://www.w3.org/2000/svg">
<path d="M115.624 124.387C114.826 123.204 114.863 119.991 115.684 118.491C116.133 117.674 118.275 115.556 120.44 113.783C124.723 110.275 124.907 109.762 123.783 104.418C122.623 98.905 122.481 97.7091 122.976 97.7091C123.536 97.7091 125.031 103.798 125.031 106.094C125.031 106.911 125.407 108.052 125.87 108.633C126.599 109.547 126.819 109.576 127.494 108.831C128.099 108.157 128.072 107.458 127.361 105.605C126.086 102.291 123.747 91.4975 123.669 88.5707C123.636 87.2273 123.398 85.4628 123.137 84.6458C122.696 83.2393 122.65 83.273 122.306 85.2396C121.985 87.0925 122.513 92.0702 123.43 95.7803C123.614 96.5131 123.494 97.1153 123.169 97.1153C122.329 97.1153 120.93 87.4168 121.316 84.2752C121.664 81.4495 121.196 80.801 119.233 81.3695C117.903 81.7611 117.174 83.2224 116.867 86.1282C116.509 89.5308 115.83 91.7375 114.936 92.4198C113.831 93.262 113.771 94.8538 114.812 95.8098C115.413 96.3615 115.353 96.5215 114.532 96.5215C113.95 96.5215 113.289 95.9824 113.06 95.3255C112.835 94.6685 112.377 94.2811 112.047 94.4706C111.111 95.0012 111.34 96.6141 112.519 97.8101C113.106 98.4081 113.267 98.8966 112.877 98.8966C112.487 98.8966 111.758 98.3576 111.253 97.7006C110.189 96.3067 110.781 93.0051 112.794 89.0971C114.106 86.5577 115.092 82.8645 114.459 82.8645C114.253 82.8645 112.23 83.7994 109.969 84.9406C107.703 86.0818 104.548 87.1768 102.952 87.3789C100.301 87.7158 99.8696 87.581 97.9799 85.846L95.9115 83.9468L93.0128 85.5091C89.2107 87.5516 81.2028 89.4003 76.2586 89.375C65.8153 89.3203 56.9589 85.1091 50.6846 77.2214C43.3505 68.0031 43.8894 60.5534 52.1752 56.6412C53.542 55.9926 54.4868 55.3062 54.2758 55.1125C54.0694 54.9188 51.4919 54.1902 48.5565 53.4912C45.6203 52.7921 42.3451 51.8109 41.2783 51.3097C35.487 48.5851 29.9714 45.6541 27.5667 44.0285C26.0725 43.0136 23.6412 41.3856 22.1648 40.406C18.22 37.7888 8.36104 28.1392 5.62111 24.2143C0.198567 16.4454 -1.06866 12.5029 0.827367 9.29728C1.91499 7.45781 5.08954 5.25618 8.6188 3.89385C11.6133 2.73783 13.2557 2.52752 19.0052 2.56411C22.7615 2.58803 27.1269 2.77038 28.706 2.96932C67.0078 7.79496 78.8541 10.5992 103.364 20.6405C110.413 23.529 112.821 24.8075 116.637 27.6905C119.398 29.775 122.444 34.1581 122.444 36.0468C122.444 37.3759 123.819 38.3272 125.75 38.3272C128.493 38.3272 128.3 37.036 125.241 34.8917C123.7 33.8119 122.444 32.525 122.444 32.0314C122.444 31.5383 121.604 30.4147 120.581 29.535C118.164 27.4555 117.756 26.6213 115.954 20.0724C114.848 16.0692 114.124 14.4925 113.266 14.2428C112.624 14.0545 112.092 13.6515 112.092 13.347C112.092 13.0426 110.895 12.7933 109.432 12.7933C107.033 12.7933 106.804 12.9188 107.129 14.0587C107.331 14.7633 107.093 15.6902 106.588 16.1509C105.818 16.8579 105.579 16.788 104.928 15.67C103.919 13.9421 105.731 10.7074 108.138 9.93721C109.835 9.39355 112.739 9.96501 112.743 10.8443C112.743 11.0995 114.009 11.7864 115.555 12.37C117.105 12.9537 118.706 14.0229 119.118 14.7452C119.926 16.1656 122.448 25.7154 122.714 28.3841C122.898 30.2008 123.737 31.3757 123.737 29.8159C123.737 29.2718 124.026 28.8263 124.384 28.8263C124.737 28.8263 125.03 29.0351 125.03 29.2908C125.03 29.546 125.755 29.81 126.645 29.8778C128.222 29.9978 129.025 28.5681 127.626 28.1335C127.273 28.0244 126.801 26.6992 126.576 25.1878C126.195 22.6366 126.319 22.3069 128.282 20.5857C130.488 18.6481 132.034 18.318 134.111 19.3388C135.102 19.826 135.969 19.546 138.478 17.9247C142.573 15.2825 147.348 14.5582 149.604 16.2368L151.145 17.3848L153.296 15.2947C155.457 13.1904 156.447 12.9802 155.695 14.7864C155.47 15.3234 154.879 15.7622 154.383 15.7622C153.87 15.7622 153.484 16.3619 153.484 17.1645C153.484 18.3504 153.741 18.5218 155.149 18.2746C157.365 17.8851 159.667 19.0937 160.804 21.2444C161.589 22.736 161.598 23.398 160.864 25.643C160.103 27.955 160.121 28.3289 160.988 28.6346C161.534 28.8267 162.309 28.6814 162.712 28.3112C163.116 27.9415 163.978 27.6387 164.634 27.6387C167.051 27.6387 168.179 25.7777 168.652 21.0195C169.253 14.9604 170.486 12.8678 174.105 11.7725C175.66 11.3004 177.43 11.033 178.036 11.1778C178.636 11.3227 179.673 11.0776 180.338 10.6329C182.044 9.48703 182.429 9.60032 183.539 11.5762C184.691 13.6182 184.847 16.356 183.81 16.356C183.397 16.356 183.278 15.9193 183.526 15.3171C183.87 14.4837 183.796 14.4247 183.14 15.0202C181.829 16.2178 180.985 15.8704 182.205 14.6336C183.838 12.9777 182.714 12.7491 177.692 13.7138C175.224 14.1872 173.169 14.5746 173.119 14.5746C173.069 14.5746 172.885 15.443 172.706 16.5046C171.991 20.8363 170.175 27.3603 169.454 28.1904C169.028 28.678 169.555 28.5167 170.624 27.8324C175.27 24.853 192.621 16.3652 199.729 13.5951C218.456 6.29871 226.881 4.53084 260.413 0.862441C268.448 -0.0163583 272.158 -0.211128 272.631 0.221408C273.099 0.653901 272.007 0.84269 269.026 0.84269C266.673 0.84269 264.233 1.11848 263.605 1.45555C262.738 1.91836 263.646 2.08071 267.306 2.11861C276.213 2.21071 280.497 2.70073 282.18 3.81944C284.28 5.21348 284.666 8.13932 282.955 9.70758C282.272 10.3355 281.524 11.7732 281.295 12.9031C281.061 14.0325 280.148 15.8581 279.263 16.9593C278.378 18.061 277.653 19.2961 277.653 19.7046C277.653 20.1127 276.199 21.5971 274.42 23.0037C272.645 24.4098 271.186 25.8399 271.186 26.1819C271.186 27.188 266.384 31.2013 265.178 31.2013C264.527 31.2013 264.073 31.6611 264.073 32.3198C264.073 33.9057 259.257 37.7333 257.262 37.7333C256.294 37.7333 255.455 38.1578 255.207 38.7726C254.267 41.1284 250.001 43.9524 246.552 44.5041C245.277 44.7105 243.567 45.5274 242.755 46.3191C241.333 47.7131 237.852 48.9006 231.738 50.0882C229.129 50.5978 229.046 50.6609 230.903 50.7241C233.431 50.8125 242.75 48.8627 246.254 47.5109C257.716 43.0933 277.772 25.2003 283.932 13.8999C286.381 9.40353 286.587 8.68972 286.06 6.55126C285.739 5.24873 284.872 3.73235 284.134 3.18186C282.973 2.31818 276.956 0.76992 274.612 0.731598C274.181 0.724607 273.938 0.56298 274.066 0.37246C274.277 0.0570391 275.195 0.0394952 280.299 0.252979C282.299 0.336614 286.335 3.04313 287.307 4.95313C287.688 5.70315 288 6.90588 288 7.62515C288 8.93106 284.459 16.358 283.56 16.9395C283.299 17.1084 282.602 18.1819 282.01 19.3252C280.96 21.3567 280.198 22.2158 272.622 29.9025C267.265 35.3346 255.221 44.2852 249.524 47.073C246.47 48.568 239.599 50.5936 235.939 51.0779C230.798 51.7559 230.582 52.0296 234.114 53.3983C242.539 56.6535 244.677 61.5891 240.81 68.8745C235.93 78.076 226.698 85.2057 217.374 86.9828C212.732 87.8671 203.683 87.9345 200.372 87.1091C198.95 86.7512 197.638 86.5153 197.459 86.5869C197.285 86.6543 195.721 85.951 193.987 85.0161C191.63 83.7486 190.713 83.5085 190.341 84.0644C189.704 85.0035 183.425 84.9909 180.288 84.0391C177.527 83.2053 176.82 83.6349 178.022 85.4162C178.508 86.1321 179.228 87.1976 179.613 87.7787C180.145 88.5746 180.113 88.9579 179.48 89.32C178.407 89.9349 179.746 92.9585 181.095 92.9585C181.797 92.9585 181.833 92.6974 181.265 91.7204C180.865 91.0382 180.687 90.3476 180.865 90.1833C181.333 89.7538 182.338 91.7541 182.819 94.0829C183.232 96.0706 182.471 97.7088 181.136 97.7088C180.778 97.7088 180.856 97.3003 181.306 96.8034C181.755 96.3064 181.911 95.7042 181.654 95.4684C181.398 95.2326 180.815 95.5063 180.361 96.0748C179.15 97.5951 178.517 97.3466 179.6 95.78C180.43 94.5714 180.343 94.1335 178.655 91.1772C177.627 89.379 176.426 87.1765 175.99 86.2795C175.55 85.3783 174.986 84.6456 174.733 84.6456C174.486 84.6456 174.078 83.7865 173.825 82.7337C173.151 79.9121 172.165 78.7204 169.734 77.7728C168.537 77.3054 167.409 76.9264 167.235 76.9264C167.056 76.9264 167.106 78.8635 167.34 81.2303C167.643 84.3002 167.381 87.8924 166.423 93.746C165.57 98.9806 165.194 103.562 165.386 106.397C165.666 110.519 165.863 111.02 168.115 113.328C169.45 114.701 170.853 115.922 171.229 116.044C173.903 116.916 176.054 120.866 173.857 120.866C173.307 120.866 172.848 121.447 172.798 122.205C172.715 123.435 172.688 123.423 172.417 122.054C172.261 121.237 171.372 119.835 170.445 118.938C169.519 118.041 169.065 117.304 169.432 117.304C169.798 117.304 170.624 117.838 171.271 118.491C171.913 119.144 172.757 119.67 173.147 119.662C174.302 119.632 170.326 116.71 169.129 116.71C168.028 116.71 166.395 115.4 162.162 111.134C159.566 108.523 159.571 108.767 161.983 98.3026C163.666 91.0045 164.377 81.4113 163.208 81.7693C162.754 81.9083 161.68 83.7359 160.823 85.8289C159.965 87.9261 158.86 90.0528 158.364 90.5581C157.869 91.0593 157.268 92.1963 157.03 93.0807C156.787 93.9692 156.181 95.001 155.686 95.38C155.186 95.7632 154.778 96.3149 154.778 96.6139C154.778 96.9087 154.287 98.1468 153.686 99.3596C152.485 101.789 152.375 102.152 152.265 104.068C152.223 104.792 151.65 105.862 150.985 106.443C150.32 107.028 149.288 108.885 148.692 110.566C147.839 112.958 147.238 113.711 145.949 114.01C144.059 114.444 143.147 113.602 141.858 110.229C141.408 109.058 140.519 107.567 139.877 106.915C139.239 106.262 138.51 104.704 138.258 103.457C138.005 102.206 137.111 100.433 136.267 99.5112C135.419 98.5889 134.731 97.5614 134.731 97.2245C134.731 96.8918 134.322 95.8601 133.822 94.9378C131.58 90.7897 130.204 87.7071 130.204 86.8396C130.204 86.3258 129.91 85.7363 129.557 85.5341C129.199 85.332 128.91 84.435 128.91 83.5338C128.91 82.6368 128.521 81.4155 128.044 80.8176C127.236 79.8026 127.09 79.8532 125.668 81.6893L124.15 83.6391L125.296 91.1182C125.925 95.2326 127.195 100.69 128.122 103.247C129.236 106.333 129.571 108.026 129.117 108.292C128.745 108.515 128.236 109.281 127.993 110.001C127.434 111.644 123.264 115.522 122.054 115.522C121.554 115.522 121.15 115.796 121.15 116.129C121.15 116.461 120.412 117.805 119.513 119.11L117.88 121.49L119.352 122.008C120.678 122.479 120.71 122.572 119.669 122.959C118.935 123.229 118.05 123.001 117.242 122.332C116.013 121.309 115.972 121.325 115.972 122.917C115.972 124.155 116.22 124.471 116.976 124.206C117.554 123.999 117.811 124.101 117.586 124.437C117.068 125.208 116.16 125.183 115.623 124.387L115.624 124.387ZM117.711 119.237C117.931 118.664 118.55 117.729 119.082 117.157C119.619 116.584 119.811 116.116 119.513 116.116C118.619 116.116 115.973 118.639 115.973 119.485C115.973 120.635 117.238 120.45 117.711 119.237ZM123.614 113.185C123.774 112.739 123.531 112.516 123.049 112.667C122.582 112.811 122.072 113.278 121.917 113.703C121.756 114.15 121.999 114.373 122.481 114.225C122.948 114.082 123.458 113.615 123.614 113.185ZM125.994 111.358C125.769 111.025 125.315 110.907 124.985 111.097C124.086 111.606 124.256 111.96 125.388 111.96C125.943 111.96 126.214 111.69 125.994 111.358ZM144.716 109.269C144.913 108.3 145.225 106.772 145.408 105.875C145.711 104.413 145.56 104.236 143.959 104.215L142.166 104.194L143.945 103.306C145.697 102.434 146.344 101.272 145.078 101.272C144.72 101.272 144.431 100.787 144.431 100.198C144.431 99.6083 144.023 98.6145 143.532 97.9954C142.776 97.0437 142.468 96.9889 141.611 97.6375C141.051 98.067 140.221 98.286 139.762 98.1302C138.859 97.8143 143.124 95.9277 144.734 95.9277C145.33 95.9277 145.72 95.4013 145.716 94.5927C145.706 93.5105 145.583 93.4262 145.078 94.1464C144.541 94.9086 144.45 94.8875 144.441 93.999C144.436 93.4262 144.739 92.9588 145.115 92.9588C145.491 92.9588 145.619 92.6893 145.399 92.365C144.766 91.4175 143.789 91.6744 143.707 92.8114C143.638 93.801 143.62 93.801 143.34 92.8114C143.175 92.2387 142.744 91.7712 142.372 91.7712C142.005 91.7712 141.9 92.2345 142.138 92.8114C142.482 93.6452 142.404 93.7042 141.753 93.1062C141.102 92.5124 140.781 92.6893 140.152 93.999L139.363 95.6287L139.308 93.999C139.258 92.3692 137.387 91.5607 137.254 93.1062C136.841 97.8185 137.043 99.3556 138.052 99.1788C138.762 99.0524 139.024 99.3177 138.85 99.9831C138.496 101.339 139.583 104.565 140.345 104.426C140.684 104.363 141.349 105.298 141.817 106.502C144.055 112.259 144.106 112.309 144.716 109.269ZM142.491 106.355C142.491 106.212 142.78 105.929 143.138 105.727C143.491 105.525 143.785 105.643 143.785 105.988C143.785 106.334 143.491 106.616 143.138 106.616C142.78 106.616 142.491 106.498 142.491 106.355ZM140.148 102.181C139.946 101.701 139.905 100.969 140.06 100.547C140.212 100.131 140.492 100.522 140.675 101.419C141.042 103.175 140.739 103.609 140.148 102.181ZM141.565 101.124C141.285 100.227 141.285 99.0229 141.565 98.4544C142.01 97.5406 142.101 97.5743 142.326 98.7492C142.464 99.482 142.468 100.686 142.331 101.419C142.092 102.678 142.046 102.661 141.565 101.124ZM138.111 95.3339C138.111 94.1927 138.244 93.721 138.409 94.2937C138.57 94.8665 138.57 95.8014 138.409 96.3741C138.244 96.9426 138.111 96.4752 138.111 95.3339ZM164.479 110.772C164.479 110.448 164.025 110.179 163.47 110.179C162.915 110.179 162.644 110.448 162.864 110.772C163.08 111.101 163.534 111.366 163.869 111.366C164.203 111.366 164.479 111.101 164.479 110.772ZM164.176 106.692C163.974 105.833 164.396 101.154 165.112 96.2941C166.547 86.5956 166.767 81.3526 165.772 80.7841C165.364 80.5525 165.107 82.0264 165.075 84.7595C165.047 87.1473 164.919 89.6319 164.79 90.2847C164.657 90.9416 164.208 93.2115 163.795 95.3339C163.378 97.4564 162.814 99.7262 162.539 100.383C162.263 101.036 162.02 102.236 162.002 103.053C161.979 103.87 161.796 105.373 161.589 106.393C161.25 108.081 161.369 108.25 162.883 108.25C164.341 108.25 164.502 108.056 164.176 106.692ZM151.499 101.457C151.563 97.8438 150.508 97.7975 150.329 101.402C150.247 103.078 150.16 104.599 150.137 104.788C150.114 104.978 150.151 105.399 150.219 105.727C150.485 107.024 151.458 103.79 151.499 101.457ZM153.485 96.2393C153.485 95.1402 153.306 93.8221 153.091 93.3041C152.655 92.2639 150.252 91.9986 150.252 92.9925C150.252 93.3378 150.54 93.4557 150.898 93.2536C151.251 93.0556 151.595 93.5062 151.655 94.2601C151.715 95.0139 151.829 96.033 151.912 96.5215C151.99 97.01 152.086 97.7638 152.123 98.1891C152.27 99.8568 153.485 98.1175 153.485 96.2393ZM136.451 95.7803C136.272 95.3718 136.125 95.7045 136.125 96.5215C136.125 97.3385 136.272 97.6712 136.451 97.2627C136.63 96.8542 136.63 96.1888 136.451 95.7803ZM136.524 93.0514C137.506 91.0132 139.726 89.9899 143.165 89.9899C145.578 89.9899 145.725 89.8888 145.725 88.2085C145.725 86.8904 145.431 86.4398 144.592 86.4735C143.918 86.503 143.785 86.6419 144.271 86.8188C144.711 86.9831 145.055 87.5642 145.028 88.1075C144.995 88.7307 144.853 88.8234 144.647 88.3517C144.468 87.9432 144.055 87.7579 143.73 87.9432C143.404 88.1285 143.133 87.9264 143.129 87.501C143.12 86.9283 142.936 86.9578 142.432 87.6147C141.913 88.2843 141.666 88.3222 141.418 87.7621C140.863 86.5114 139.262 86.9409 139.194 88.3559C139.129 89.6403 139.106 89.6319 138.611 88.2085C138.125 86.8188 138.084 86.8609 137.932 88.8023C137.786 90.6595 137.74 90.7058 137.501 89.2487C137.35 88.3391 136.818 87.6147 136.304 87.6147C135.795 87.6147 135.378 87.3915 135.378 87.1178C135.378 86.5619 142.39 84.6458 144.422 84.6458C145.138 84.6458 145.725 84.4016 145.725 84.0984C145.725 83.0877 144.94 81.6769 144.381 81.6769C144.074 81.6769 144.005 82.1065 144.225 82.6371C144.574 83.4667 144.431 83.5004 143.138 82.8645C141.845 82.2286 141.702 82.2581 142.046 83.0919C142.271 83.6183 142.166 84.052 141.822 84.052C141.478 84.052 141.198 83.652 141.198 83.1593C141.198 82.6708 140.762 82.2707 140.226 82.2707C139.694 82.2707 139.258 82.7213 139.258 83.273C139.258 84.1489 139.134 84.132 138.308 83.1256C137.41 82.0391 137.35 82.0896 137.24 84.052C137.139 85.8671 137.088 85.926 136.855 84.4984C136.703 83.5972 136.281 82.8645 135.91 82.8645C135.515 82.8645 135.405 83.4751 135.644 84.3468C136.148 86.1955 135.552 86.2882 134.694 84.4984C134.194 83.4498 134.116 83.7994 134.327 86.0861C134.474 87.6947 134.282 89.4803 133.892 90.0446C133.383 90.7984 133.401 91.4554 133.96 92.4661C134.667 93.7337 134.704 93.6747 134.378 91.7712C134.084 90.0446 134.153 89.8762 134.768 90.7858C135.171 91.3838 135.373 92.5208 135.208 93.3083C134.8 95.2581 135.529 95.1149 136.524 93.0514ZM155.471 92.365C156.301 92.365 156.223 90.3478 155.32 88.5328C154.462 86.8062 152.164 86.4524 152.242 88.0611C152.274 88.6802 152.425 88.7981 152.618 88.3559C152.797 87.9474 153.228 87.6147 153.577 87.6147C153.925 87.6147 154.04 87.8632 153.834 88.1664C153.632 88.4696 153.76 88.8865 154.122 89.0929C154.48 89.2992 154.778 90.1499 154.778 90.9879C154.778 92.2471 154.618 92.3861 153.847 91.8007C153.049 91.1901 153.026 91.308 153.687 92.6093C154.2 93.6284 154.521 93.8389 154.664 93.2494C154.778 92.7609 155.141 92.365 155.471 92.365ZM114.583 90.5837C115.119 89.1771 115.078 88.8023 114.386 88.8023C113.477 88.8023 111.932 92.0155 112.56 92.5966C113.17 93.1525 113.877 92.4534 114.583 90.5837ZM158.658 87.6526C158.658 87.0589 159.117 86.2208 159.681 85.7913C160.319 85.307 160.585 84.4479 160.392 83.513C160.186 82.5318 160.479 81.6895 161.245 81.0789C162.47 80.1061 163.346 76.8719 162.63 75.9665C161.186 74.1388 155.012 72.0206 155.631 73.5661C155.787 73.9451 156.246 74.1851 156.654 74.1009C157.067 74.0167 157.567 74.3452 157.773 74.8379C157.98 75.3306 158.406 75.5833 158.727 75.4022C159.044 75.2211 159.305 75.5075 159.305 76.0339C159.305 76.5645 159.594 76.8298 159.952 76.6276C160.31 76.4255 160.599 76.7877 160.599 77.4362C160.599 78.0805 160.961 78.729 161.406 78.8807C162.011 79.0828 162.029 79.3355 161.488 79.8661C160.924 80.4135 160.332 80.1903 158.915 78.9017C157.338 77.4657 157.039 77.373 156.847 78.2616C156.608 79.3734 158.236 81.2726 158.906 80.6578C159.126 80.4557 159.305 80.7504 159.305 81.3147C159.305 81.9759 159.021 82.1823 158.498 81.8959C157.948 81.5927 157.97 81.7696 158.576 82.4518C159.062 83.0034 159.246 83.4583 158.979 83.4583C158.718 83.4583 158.86 83.8583 159.305 84.3468C159.956 85.0669 159.938 85.2396 159.223 85.2354C158.736 85.2312 157.837 84.431 157.232 83.454C156.627 82.477 155.769 81.6769 155.324 81.6769C154.7 81.6769 154.691 81.8327 155.297 82.3886C155.723 82.7803 156.072 83.5972 156.072 84.2036C156.072 84.8143 156.361 85.1427 156.718 84.9406C157.393 84.5574 157.659 85.7492 157.434 88.1117C157.351 88.9581 157.567 89.354 157.98 89.1181C158.351 88.9076 158.658 88.2464 158.658 87.6526ZM133.827 87.8632C133.612 87.3452 133.438 86.2756 133.438 85.4881C133.438 83.7362 132.731 83.6436 131.635 85.2522C131.039 86.1282 131.007 86.7725 131.502 87.6274C132.332 89.0508 134.415 89.2571 133.827 87.8632ZM82.2531 87.5853C84.5142 87.2484 88.2062 86.2082 90.4582 85.2691C94.0723 83.7657 95.0171 82.9866 98.5349 78.6111C102.479 73.7177 114.509 62.8569 119.811 59.4079C121.32 58.4267 123.329 56.9991 124.274 56.2369L125.998 54.8472L123.737 56.1948C116.61 60.4355 103.979 70.5129 101.53 73.9114C95.9436 81.6685 88.7979 85.147 77.341 85.6986C73.3049 85.8966 72.1446 85.7071 68.9341 84.33C66.8839 83.4498 64.1871 82.3002 62.9442 81.7738C61.6967 81.2431 59.7245 79.9377 58.555 78.868C57.39 77.7984 56.1654 76.9266 55.8398 76.9266C54.8996 76.9266 52.2165 73.3387 50.6938 70.0497C49.2995 67.0345 49.2766 64.2972 50.6342 63.0506C51.0011 62.7137 51.2992 62.0231 51.2992 61.5178C51.2901 60.0691 55.8765 56.7591 58.8577 56.06C60.3437 55.7147 61.7058 55.0788 61.8847 54.6577C62.7332 52.6236 52.2991 57.1718 49.1207 60.2207C45.4034 63.7834 46.3046 69.7507 51.5882 76.5476C55.7435 81.9001 58.9448 84.2752 64.366 86.0397C71.1264 88.2464 75.3642 88.6128 82.2531 87.5853ZM156.718 87.2821C156.718 86.7725 156.42 86.524 156.063 86.7304C155.7 86.9325 155.572 87.3494 155.774 87.6568C156.329 88.478 156.718 88.3264 156.718 87.2821ZM115.757 85.686C115.578 85.2775 115.431 85.6102 115.431 86.4272C115.431 87.2441 115.578 87.5768 115.757 87.1684C115.936 86.7599 115.936 86.0945 115.757 85.686ZM178.059 87.0925C178.059 86.8062 177.623 86.2377 177.091 85.8334C176.036 85.029 175.903 85.2228 176.513 86.6756C176.926 87.6695 178.059 87.9769 178.059 87.0925ZM109.432 84.33C112.363 82.8645 116.569 79.6639 116.67 78.8259C116.697 78.5985 116.816 77.9626 116.931 77.4109C117.078 76.7161 116.816 76.5055 116.073 76.7203C115.248 76.9519 115.289 76.8087 116.261 76.0844C116.986 75.5411 117.17 75.1453 116.697 75.1453C115.486 75.1453 113.895 73.5113 114.675 73.0692C115.693 72.4922 115.44 70.395 114.358 70.395C113.826 70.395 113.386 70.6603 113.386 70.9888C113.386 71.3131 113.051 71.5826 112.643 71.5826C112.225 71.5826 112.427 71.0393 113.097 70.3613C113.941 69.5065 114.762 69.2454 115.84 69.4938C116.821 69.7212 117.225 69.6244 116.959 69.2285C116.734 68.8916 116.069 68.6137 115.482 68.6137C114.629 68.6137 114.583 68.4663 115.243 67.8683C115.899 67.2745 116.248 67.3629 117.009 68.3063C117.858 69.3591 117.839 69.5696 116.844 70.2392C115.807 70.9341 115.807 70.9888 116.821 70.9888C118 70.9888 118.101 71.3131 117.926 74.6989C117.867 75.9244 117.977 76.9266 118.174 76.9266C119.481 76.9266 124.003 64.0066 123.292 62.3053C123.008 61.623 123.114 61.4293 123.618 61.7157C124.109 61.9936 124.233 61.821 123.98 61.2188C123.769 60.7092 123.935 60.3007 124.357 60.3007C124.838 60.3007 124.957 59.8333 124.678 59.0373C124.389 58.1993 124.48 57.9087 124.948 58.174C125.333 58.393 126.269 58.2667 127.03 57.8919C127.792 57.5213 128.292 57.4413 128.14 57.7192C125.815 62.0652 125.04 63.9897 125.402 64.5288C125.645 64.8867 125.531 65.3584 125.145 65.5774C124.251 66.0869 123.031 70.9888 123.806 70.9888C124.123 70.9888 124.384 71.2836 124.384 71.6458C124.384 72.0079 123.944 72.1469 123.412 71.9616C122.88 71.7721 122.444 71.8774 122.444 72.1932C122.444 72.5091 122.733 72.7702 123.091 72.7702C124.068 72.7702 123.866 74.5178 122.77 75.5201C122.238 76.0086 121.513 76.2402 121.155 76.0381C120.793 75.8359 120.504 76.1307 120.504 76.695C120.504 77.2593 120.022 78.2111 119.431 78.8091C118.472 79.7819 118.468 79.8956 119.385 79.8956C121.325 79.8956 124.081 75.9244 125.255 71.4478C126.031 68.4705 126.159 67.0766 125.668 66.9292C125.246 66.7986 125.393 66.4196 126.031 65.9943C126.65 65.5774 127.246 64.0908 127.443 62.4737C127.856 59.1342 128.416 58.6415 129.567 60.6166C130.057 61.4546 130.998 62.0779 131.768 62.0779C133.759 62.0736 137.992 60.9703 140.414 59.8248C142.285 58.9363 142.611 58.9236 143.152 59.7069C143.697 60.4944 143.766 60.4944 143.785 59.7069C143.803 58.911 143.872 58.911 144.431 59.7069C144.986 60.4986 145.06 60.4986 145.078 59.7069C145.096 58.911 145.165 58.911 145.725 59.7069C146.069 60.1954 146.353 60.3007 146.362 59.9343C146.371 59.1847 149.426 59.5511 149.976 60.3681C150.495 61.143 153.338 61.004 153.632 60.1954C153.778 59.7827 154.233 59.6901 154.723 59.9722C155.407 60.3597 155.397 60.5534 154.687 61.0124C153.971 61.4714 153.985 61.5346 154.76 61.3409C155.283 61.2103 155.911 60.4523 156.15 59.6606C156.59 58.2204 156.59 58.2204 156.654 59.8122C156.695 60.8524 157.168 61.5388 158.012 61.7831C159.571 62.2379 161.892 61.6441 161.892 60.7892C161.892 60.4481 161.456 60.326 160.924 60.5155C160.3 60.7345 159.933 60.4902 159.906 59.8333C159.869 58.9826 159.768 59.0121 159.305 60.0017C158.819 61.0377 158.732 60.9619 158.626 59.4079L158.507 57.6266L158.012 59.4079C157.521 61.1809 157.516 61.1809 157.443 58.9615C157.36 56.6159 158.92 55.7189 159.507 57.774C159.727 58.5573 159.819 58.4815 159.878 57.4792C159.952 56.1316 160.621 55.7652 161.516 56.5864C161.782 56.8307 162.328 57.0328 162.722 57.0328C164.006 57.0328 165.57 62.3558 165.955 68.0367C166.35 73.823 167.519 76.396 169.95 76.834C170.959 77.0151 171.037 76.6866 170.647 73.8651C170.097 69.8518 167.776 63.1643 167.07 63.5602C166.781 63.7287 166.68 63.3707 166.85 62.7685C167.386 60.8903 163.772 55.8663 161.415 55.2093C160.952 55.0788 162.965 51.9962 163.511 52.0004C164.708 52.0088 165.68 52.889 165.566 53.866C165.497 54.4429 168.327 57.0581 172.565 60.3386C176.477 63.3623 179.096 65.2236 178.385 64.4698C176.899 62.899 171.349 57.9466 169.111 56.2032C168.024 55.3525 167.721 54.6703 168.033 53.7691C168.382 52.7668 168.652 52.6573 169.382 53.2132C169.886 53.5964 170.299 54.3797 170.299 54.9525C170.299 56.2411 171.941 57.5718 172.872 57.0412C173.252 56.8222 173.486 56.9191 173.385 57.2518C173.188 57.9256 183.558 66.8323 184.544 66.8323C184.888 66.8323 185.173 67.085 185.173 67.3924C185.173 67.6998 186.209 68.9674 187.475 70.2139C188.741 71.4563 190.8 73.8693 192.052 75.5748C194.061 78.3079 199.872 83.4583 200.945 83.4583C201.872 83.4583 201.193 81.2137 198.987 76.9898C196.373 71.97 193.905 68.7232 190.415 65.7079C186.25 62.1115 175.816 55.1377 174.986 55.3946C174.541 55.5336 174.179 55.3567 174.179 55.003C174.179 54.6493 173.601 54.3587 172.895 54.3587C172.188 54.3587 171.023 53.8997 170.308 53.3396C168.882 52.2194 168.519 51.0529 169.813 51.7688C170.363 52.072 170.34 51.8909 169.735 51.2087C169.249 50.657 168.519 50.2064 168.12 50.2148C167.717 50.219 167.827 50.4801 168.359 50.796C169.065 51.2171 169.097 51.3771 168.483 51.3813C168.019 51.3856 167.818 51.6593 168.038 51.9835C168.487 52.6531 167.675 52.7542 166.148 52.2194C165.584 52.0214 165.125 51.4866 165.125 51.0318C165.125 49.0736 162.3 50.4507 157.984 54.5103C154.329 57.9466 153.022 58.8142 151.481 58.8142C149.926 58.8142 149.591 58.5867 149.742 57.6266C149.88 56.7464 150.389 56.4559 151.705 56.5064C152.847 56.5485 153.485 56.2706 153.485 55.7273C153.485 55.2641 153.751 55.0367 154.077 55.222C154.402 55.4031 154.843 55.2178 155.054 54.8093C155.264 54.4008 155.306 54.7335 155.141 55.5462C154.865 56.9065 154.916 56.9444 155.714 55.9674C156.191 55.3778 156.507 54.4429 156.42 53.887C156.329 53.3311 156.384 53.2132 156.535 53.6259C157.007 54.8935 157.915 53.8491 157.526 52.4847C157.278 51.6087 157.397 51.3392 157.911 51.6298C158.369 51.8909 158.677 51.6382 158.704 50.9813C158.746 50.0211 158.81 50.0337 159.305 51.095C159.782 52.1183 159.869 52.0341 159.915 50.5012C159.961 49.1241 160.112 48.922 160.599 49.6084C161.121 50.3496 161.236 50.3033 161.286 49.3136C161.319 48.6609 161.484 48.4293 161.649 48.8041C162.007 49.6 164.433 49.141 165.616 48.0545C166.139 47.5786 166.194 47.1785 165.777 46.9427C165.419 46.7364 165.125 46.888 165.125 47.2754C165.125 47.7597 164.135 47.8944 161.929 47.6965C158.957 47.4354 158.686 47.5239 158.03 48.9809C157.049 51.1539 152.201 55.9084 151.664 55.222C151.421 54.9103 150.495 54.5987 149.605 54.5229C148.715 54.4513 148.353 54.5398 148.798 54.7208C150.054 55.2388 149.747 56.14 148.311 56.14C147.532 56.14 146.995 55.7315 146.968 55.1041C146.936 54.4766 146.784 54.3587 146.587 54.8093C146.05 56.0263 145.073 55.0114 145.124 53.2848C145.161 51.9372 145.243 51.8656 145.656 52.8342C146.133 53.9502 146.156 53.9502 146.614 52.8511C147.014 51.8993 147.183 51.8572 147.688 52.5942C148.123 53.2259 148.307 52.8047 148.348 51.095C148.376 49.7895 148.646 48.185 148.94 47.5323C149.265 46.8164 149.339 47.7428 149.119 49.8527C148.853 52.4215 148.954 53.2427 149.504 52.9353C149.967 52.67 150.288 50.4507 150.348 47.0522C150.403 44.0496 150.559 42.3946 150.701 43.3758C151.16 46.589 151.756 47.0606 152.219 44.5634C152.636 42.2935 152.659 42.2725 152.747 44.117C152.797 45.1782 153.127 46.0457 153.485 46.0457C154.219 46.0457 154.306 44.635 153.701 42.5504L153.288 41.1304L143.785 41.4399C133.658 41.7692 131.456 42.3104 131.562 44.437C131.621 45.6667 131.654 45.6583 132.112 44.2644C132.566 42.8831 132.635 42.942 133.167 45.1571L133.736 47.5323L134.135 44.8581L134.534 42.1882L134.731 45.7509L134.924 49.3136L135.323 46.6395L135.726 43.9696L136.309 47.8271C136.855 51.4361 136.923 51.554 137.341 49.6084C137.721 47.865 137.809 47.785 137.877 49.0904C137.923 49.9495 138.405 51.6214 138.941 52.8047C139.51 54.0555 139.648 54.9525 139.267 54.9525C138.212 54.9525 133.782 51.0234 132.791 49.2083C131.374 46.61 130.094 45.4267 127.718 44.517C125.843 43.7969 125.59 43.4684 125.939 42.1924C126.173 41.3317 126.067 40.7029 125.687 40.7029C125.324 40.7029 125.031 40.345 125.031 39.9074C125.031 39.4699 124.301 38.8075 123.412 38.4356C122.522 38.0633 121.797 37.9922 121.797 38.2768C121.797 38.5615 122.306 38.981 122.926 39.2096C123.834 39.5419 123.618 39.7617 121.843 40.3121C118.945 41.2125 118.779 41.9579 121.196 43.2242C123.93 44.6476 123.503 46.3616 119.853 48.6651L116.945 50.5054L120.325 50.6233C123.687 50.7454 127.127 52.3415 127.874 54.1228C128.058 54.5608 127.017 55.6684 125.48 56.6791C123.99 57.6561 122.283 58.89 121.696 59.4206C121.109 59.947 119.674 61.0293 118.5 61.8252C117.33 62.6169 116.716 63.2696 117.142 63.2696C117.569 63.2696 117.913 63.6697 117.913 64.1582C117.913 64.6467 117.463 65.051 116.908 65.051C116.335 65.051 116.092 64.7646 116.339 64.394C117.504 62.6632 112.464 66.4491 107.368 71.132C103.681 74.522 101.112 77.4615 100.099 79.466C98.2184 83.1719 98.1634 83.9004 99.6448 85.3996C101.117 86.8946 105.185 86.4482 109.432 84.33ZM103.039 82.3044C103.039 81.9591 103.332 81.6769 103.685 81.6769C104.043 81.6769 104.332 81.7948 104.332 81.938C104.332 82.0812 104.043 82.3633 103.685 82.5655C103.332 82.7676 103.039 82.6497 103.039 82.3044ZM104.658 81.0831C104.438 80.7546 104.548 80.4893 104.905 80.4893C105.259 80.4893 105.731 80.7546 105.951 81.0831C106.171 81.4074 106.061 81.6769 105.703 81.6769C105.346 81.6769 104.878 81.4074 104.658 81.0831ZM108.625 79.0028C108.831 78.5143 109.249 78.1142 109.556 78.1142C109.863 78.1142 109.946 78.5143 109.74 79.0028C109.538 79.4955 109.12 79.8956 108.813 79.8956C108.506 79.8956 108.423 79.4955 108.625 79.0028ZM112.739 76.0718C112.739 75.9244 113.033 75.6422 113.386 75.4401C113.744 75.2379 114.032 75.3559 114.032 75.7012C114.032 76.0507 113.744 76.3329 113.386 76.3329C113.033 76.3329 112.739 76.2149 112.739 76.0718ZM110.556 74.2315C109.932 72.7365 110.116 72.3532 110.882 73.5577C111.258 74.1514 111.432 74.7663 111.262 74.9179C111.097 75.0695 110.781 74.7621 110.556 74.2315ZM168.515 74.4547C168.074 74.0504 167.712 73.1786 167.712 72.5175C167.712 71.3678 167.758 71.3762 168.73 72.6522C169.909 74.1936 169.739 75.579 168.515 74.4547ZM109.506 71.0478C109.506 70.4287 110.739 69.5359 111.102 69.8897C111.221 70.0034 110.909 70.4414 110.414 70.8625C109.914 71.2836 109.506 71.3678 109.506 71.0478ZM168.084 70.6477C166.754 69.4264 166.643 66.3649 167.964 67.3714C168.703 67.9315 169.826 71.5826 169.262 71.5826C169.171 71.5826 168.643 71.1615 168.084 70.6477ZM124.425 69.0559C124.402 68.1589 124.673 67.4261 125.031 67.4261C125.787 67.4261 125.787 67.8809 125.031 69.5022C124.535 70.5551 124.467 70.5045 124.425 69.0559ZM114.679 66.3354C114.679 66.0617 115.564 65.8427 116.647 65.8427C117.913 65.8427 118.316 66.0154 117.78 66.327C116.688 66.9629 114.679 66.9671 114.679 66.3354ZM119.857 66.2385C119.857 65.9101 120.146 65.6448 120.504 65.6448C120.857 65.6448 121.151 65.9101 121.151 66.2385C121.151 66.5628 120.857 66.8323 120.504 66.8323C120.146 66.8323 119.857 66.5628 119.857 66.2385ZM118.857 63.8213C118.623 63.4718 118.568 63.0633 118.738 62.9075C118.908 62.7517 119.22 63.0338 119.431 63.5392C119.871 64.5835 119.495 64.7688 118.857 63.8213ZM119.857 62.1537C119.857 61.901 120.582 61.0672 121.472 60.3007C122.361 59.5301 123.091 59.1216 123.091 59.3869C123.091 59.648 122.361 60.486 121.472 61.2398C120.582 61.9978 119.857 62.4105 119.857 62.1537ZM131.094 59.9722C131.319 59.4416 131.209 59.2058 130.842 59.4121C130.489 59.6101 130.177 59.5595 130.149 59.2942C130.122 59.0289 129.97 58.014 129.819 57.0328C129.585 55.5125 129.663 55.3904 130.36 56.199C130.805 56.7212 131.465 57.1928 131.819 57.2392C132.892 57.3865 132.731 60.8945 131.654 60.8945C131.066 60.8945 130.855 60.545 131.094 59.9722ZM133.759 59.1131C133.539 58.7847 133.667 58.5152 134.043 58.5152C134.419 58.5152 134.731 58.7847 134.731 59.1131C134.731 59.4374 134.603 59.7069 134.447 59.7069C134.286 59.7069 133.979 59.4374 133.759 59.1131ZM136.011 58.5488C132.378 56.7843 130.411 54.6156 130.021 51.9499C129.672 49.5621 127.388 46.9259 126.237 47.5786C125.93 47.7555 125.677 47.4986 125.677 47.0059C125.677 46.5174 126.012 45.9278 126.42 45.692C126.884 45.4309 126.994 45.5319 126.709 45.9573C126.416 46.391 126.737 46.6395 127.585 46.6395C128.512 46.6395 129.654 47.6923 131.282 50.0548C132.575 51.933 134.589 54.3334 135.749 55.3862C136.914 56.439 138.052 57.8414 138.281 58.5025C138.776 59.9343 138.863 59.9343 136.011 58.5488ZM131.791 52.5394C131.236 51.714 130.851 51.8698 130.851 52.91C130.851 53.4196 131.144 53.668 131.507 53.4659C131.869 53.2595 131.998 52.8426 131.791 52.5394ZM139.698 57.6982C139.455 57.1128 139.258 56.5527 139.258 56.4474C139.258 56.0053 141.895 56.9275 142.285 57.5002C142.542 57.8835 142.299 57.9845 141.67 57.7613C141.097 57.5592 140.524 57.7024 140.386 58.0772C140.249 58.452 139.946 58.2835 139.698 57.6982ZM143.785 56.877C141.537 56.1948 140.551 54.7672 140.643 52.3373L140.735 49.9074L141.198 52.2825L141.661 54.6577L141.822 52.2825L141.987 49.9074L142.542 52.5142C142.849 53.946 143.289 55.2809 143.519 55.4831C143.748 55.681 143.757 55.0451 143.537 54.0639C143.317 53.0827 143.372 51.9499 143.656 51.5456C143.973 51.095 144.197 51.6214 144.239 52.9016C144.275 54.047 144.638 55.3567 145.046 55.8115C145.89 56.7464 145.22 57.3107 143.785 56.877ZM128.911 51.7856C128.911 51.2424 128.617 50.796 128.264 50.796C127.906 50.796 127.617 50.5307 127.617 50.2022C127.617 49.8779 127.888 49.6084 128.218 49.6084C128.948 49.6084 129.833 51.9288 129.292 52.4257C129.081 52.6194 128.911 52.3331 128.911 51.7856ZM125.677 50.2022C125.677 49.8779 125.806 49.6084 125.962 49.6084C126.118 49.6084 126.425 49.8779 126.645 50.2022C126.865 50.5307 126.737 50.796 126.361 50.796C125.985 50.796 125.677 50.5307 125.677 50.2022ZM122.77 49.0231C122.522 48.6525 122.788 47.8692 123.366 47.2838C123.948 46.69 124.233 45.7846 124.003 45.2414C123.779 44.6981 123.916 44.2644 124.311 44.2644C125.301 44.2644 125.21 46.1847 124.127 48.1008C123.554 49.1115 123.059 49.4526 122.77 49.0231ZM147.096 46.3447C147.041 45.692 146.848 44.4876 146.665 43.6706L146.335 42.1882L147.027 43.6453C147.408 44.4454 147.601 45.6456 147.458 46.3152C147.202 47.4986 147.192 47.5028 147.096 46.3447ZM140.602 45.2077C140.574 44.5802 140.725 44.2307 140.941 44.4244C141.157 44.6223 141.18 45.1361 140.992 45.5656C140.785 46.0373 140.634 45.8983 140.602 45.2077ZM142.542 44.6139C142.514 43.9864 142.666 43.6369 142.881 43.8306C143.097 44.0285 143.12 44.5423 142.932 44.9719C142.725 45.4435 142.574 45.3045 142.542 44.6139ZM148.412 44.2644C148.412 43.4474 148.559 43.1147 148.738 43.5232C148.917 43.9317 148.917 44.6013 148.738 45.0098C148.559 45.4182 148.412 45.0813 148.412 44.2644ZM144.482 43.4263C144.454 42.7989 144.606 42.4493 144.821 42.643C145.037 42.841 145.06 43.3547 144.872 43.7843C144.665 44.2559 144.514 44.117 144.482 43.4263ZM219.397 85.1259C226.817 83.433 236.376 75.4064 240.045 67.7925C241.788 64.175 241.797 62.5369 240.081 59.2858C239.059 57.3444 238.031 56.4222 235.912 55.5378C232.229 53.9965 232.202 54.0176 234.642 56.3927C236.587 58.2835 238.852 63.1138 238.852 65.3626C238.852 65.9016 237.82 68.0367 236.559 70.1087C234.761 73.0565 233.853 73.9577 232.372 74.2567C231.33 74.4673 230.505 74.8168 230.537 75.04C231.119 78.9101 224.891 82.5739 216.218 83.4583C213.907 83.6941 210.412 84.1868 208.458 84.5448C204.275 85.3196 201.954 85.1512 199.904 83.9173C197.4 82.4097 186.764 73.7809 184.888 71.73C182.224 68.82 181.577 69.4138 184.012 72.5385C185.186 74.042 187.085 76.5013 188.232 78.0005C190.557 81.0368 195.001 84.0099 199.4 85.4839C201.707 86.2545 203.775 86.3851 209.375 86.1282C213.255 85.9471 217.768 85.4965 219.397 85.1259ZM153.645 85.4375C153.201 85.2733 152.838 84.4479 152.838 83.6057C152.838 81.9296 152.205 82.098 151.912 83.8499C151.728 84.949 152.609 85.846 153.806 85.7786C154.164 85.7576 154.09 85.606 153.645 85.4375ZM150.898 83.4583C150.898 82.477 150.605 81.6769 150.252 81.6769C149.894 81.6769 149.605 82.477 149.605 83.4583C149.605 84.4353 149.894 85.2396 150.252 85.2396C150.605 85.2396 150.898 84.4353 150.898 83.4583ZM79.2168 79.4492C81.4596 76.5897 84.3674 73.1744 85.6883 71.8521C87.344 70.1929 87.9127 69.199 87.5275 68.6263C86.8166 67.5735 84.8765 68.9085 76.3641 76.3076C69.0212 82.696 68.2415 84.6458 73.0297 84.6458C74.9423 84.6458 75.5248 84.1573 79.2168 79.4492ZM83.9225 83.8078C85.1654 83.3319 86.3029 82.376 86.5689 81.58C86.8257 80.8178 88.2888 77.7184 89.8207 74.6989C92.2194 69.9655 92.4441 69.2075 91.4443 69.2075C89.6556 69.2075 87.3119 71.1783 83.1428 76.1981C79.1435 81.0115 77.818 82.9571 77.818 84.0141C77.818 84.9111 81.3495 84.7932 83.9225 83.8078ZM137.254 81.18C138.46 80.801 140.891 80.4893 142.656 80.4893C145.312 80.4893 145.794 80.3293 145.468 79.5502C145.252 79.0323 145.078 78.3964 145.078 78.1395C145.078 77.8784 144.33 77.6678 143.422 77.6678C142.285 77.6678 141.872 77.9205 142.111 78.4848C142.294 78.9354 142.166 79.3018 141.822 79.3018C141.478 79.3018 141.166 78.8343 141.134 78.2616C141.088 77.5667 140.895 77.7184 140.551 78.708C140.244 79.5923 140.005 79.7945 139.969 79.2091C139.923 78.5016 139.51 78.3206 138.51 78.5606C137.529 78.7922 137.258 78.6827 137.593 78.1816C137.937 77.6762 137.593 77.5625 136.4 77.7942C135.483 77.9668 133.956 78.2616 133.011 78.4427C131.122 78.8091 130.227 78.0089 130.213 75.9412C130.204 74.9558 129.906 74.7326 128.911 74.9726C127.507 75.3095 127.044 78.3121 128.283 79.0154C128.704 79.2555 128.842 78.8259 128.649 77.8657C128.484 77.0193 128.622 76.3329 128.952 76.3329C129.282 76.3329 129.59 76.9308 129.626 77.6678C129.791 80.801 130.076 82.8897 130.456 83.8036C130.814 84.6585 131.117 84.5995 132.956 83.3235C134.112 82.5276 136.043 81.5632 137.254 81.18ZM130.952 82.8645C130.952 82.0475 131.099 81.7148 131.277 82.1233C131.456 82.5276 131.456 83.1972 131.277 83.6057C131.099 84.0141 130.952 83.6814 130.952 82.8645ZM132.268 80.7841C132.254 79.8071 132.392 79.3313 132.566 79.7355C132.745 80.1356 132.754 80.9399 132.589 81.5169C132.429 82.0938 132.282 81.7653 132.268 80.7841ZM133.539 79.8956C133.539 79.0786 133.685 78.7459 133.864 79.1544C134.043 79.5587 134.043 80.2282 133.864 80.6367C133.685 81.0452 133.539 80.7125 133.539 79.8956ZM148.733 82.1107C148.559 81.7064 148.422 82.1823 148.435 83.1593C148.449 84.1405 148.596 84.469 148.761 83.892C148.921 83.3151 148.912 82.5107 148.733 82.1107ZM188.03 83.6899C189.704 83.1003 189.245 81.8875 185.498 76.9772C183.54 74.4125 181.939 72.05 181.939 71.7216C181.939 71.1194 177.078 66.8323 176.399 66.8323C176.197 66.8323 176.656 67.6325 177.412 68.6137C178.174 69.5907 178.486 70.395 178.105 70.395C177.724 70.395 177.412 70.774 177.412 71.2331C177.412 71.6963 177.05 72.2101 176.605 72.3743C176.16 72.5385 176.449 72.6944 177.252 72.7238C178.206 72.7533 178.687 73.1239 178.655 73.8061C178.623 74.4294 178.472 74.5473 178.279 74.1051C178.1 73.6966 177.532 73.3639 177.018 73.3639C176.22 73.3639 176.224 73.6124 177.073 75.1158C178.302 77.2972 178.417 78.6785 177.284 77.6383C176.032 76.4887 175.367 76.8171 176.165 78.19C176.72 79.146 176.711 79.5587 176.133 79.8871C175.215 80.4051 178.174 82.7423 180.265 83.1551C184.439 83.9805 186.76 84.1405 188.03 83.6899ZM185.553 80.6999C185.209 79.8871 185.306 79.8492 186.131 80.4767C187.25 81.3316 187.37 81.6769 186.535 81.6769C186.218 81.6769 185.778 81.2389 185.553 80.6999ZM177.825 79.5966C178.032 79.1081 178.311 78.708 178.453 78.708C178.591 78.708 178.706 79.1081 178.706 79.5966C178.706 80.0893 178.426 80.4893 178.082 80.4893C177.738 80.4893 177.623 80.0893 177.825 79.5966ZM180.389 78.35C180.16 77.7984 180.114 77.2172 180.293 77.053C180.472 76.8887 180.806 77.2046 181.036 77.7563C181.265 78.3079 181.306 78.8933 181.132 79.0533C180.953 79.2176 180.618 78.9017 180.389 78.35ZM180.38 74.1683C179.784 72.7449 180.247 72.6396 181.164 73.983C181.595 74.6231 181.687 75.1453 181.37 75.1453C181.049 75.1453 180.6 74.7031 180.38 74.1683ZM211.283 82.8308C211.769 82.4307 210.059 79.7987 206.518 75.5032C205.981 74.8589 204.119 72.9091 202.381 71.1741C199.767 68.5674 198.836 68.0199 197.042 68.0199C195.85 68.0199 194.873 68.1252 194.873 68.2557C194.873 68.3863 195.827 69.7928 196.987 71.3762C198.152 72.9639 200.111 76.3202 201.344 78.8343C203.174 82.5739 203.881 83.4456 205.211 83.6141C207.243 83.8794 210.536 83.454 211.283 82.8308ZM175.798 82.8645C175.578 82.536 175.27 82.2707 175.11 82.2707C174.954 82.2707 174.826 82.536 174.826 82.8645C174.826 83.1887 175.133 83.4583 175.514 83.4583C175.89 83.4583 176.018 83.1887 175.798 82.8645ZM91.8983 81.4453C94.6456 79.824 97.0764 77.491 100.998 72.6859C102.502 70.8414 104.869 68.4494 106.254 67.3672C107.639 66.2849 108.602 65.1436 108.391 64.8362C108.185 64.5246 108.318 64.4446 108.689 64.6551C109.056 64.8657 109.726 64.6299 110.171 64.1371C110.62 63.6444 114.01 61.063 117.706 58.4057C121.54 55.6473 124.187 53.348 123.866 53.0532C123.146 52.392 119.857 53.5038 119.857 54.4092C119.857 54.7798 119.49 54.9525 119.045 54.7966C118.064 54.4513 113.899 56.4137 114.482 56.9486C114.711 57.1591 114.193 57.3318 113.335 57.3402C112.473 57.3444 110.317 58.2878 108.538 59.4332C106.758 60.5829 104.575 61.9515 103.685 62.4821C95.7188 67.224 94.3291 68.3442 92.4395 71.5615C90.9627 74.0714 87.5183 81.6264 87.5183 82.3507C87.5183 83.2856 89.4492 82.8855 91.8983 81.4453ZM105.626 62.1158C105.626 61.7704 105.919 61.4883 106.272 61.4883C106.63 61.4883 106.919 61.6062 106.919 61.7494C106.919 61.8926 106.63 62.1747 106.272 62.3769C105.919 62.579 105.626 62.4611 105.626 62.1158ZM74.0846 76.7413C77.5153 73.7008 82.0879 70.0329 84.2436 68.5884C86.4038 67.1482 88.165 65.8048 88.165 65.6069C88.165 64.9878 79.6663 67.224 75.0845 69.0517C68.269 71.7637 59.0641 76.5139 59.0641 77.3225C59.0641 78.5943 64.6412 81.8369 67.4939 82.2244C67.6865 82.2496 70.6494 79.7819 74.0846 76.7413ZM117.266 81.3442C117.266 80.8347 116.977 80.582 116.619 80.7841C116.266 80.9863 115.973 81.4032 115.973 81.7106C115.973 82.018 116.266 82.2707 116.619 82.2707C116.977 82.2707 117.266 81.8538 117.266 81.3442ZM221.561 81.1421C222.974 79.8113 214.535 73.6292 203.514 67.9188C200.267 66.2343 198.79 66.3186 201.069 68.0578C202.5 69.1485 209.233 76.8256 211.425 79.8703L213.246 82.397L217.002 82.1444C219.071 82.0096 221.121 81.559 221.561 81.1421ZM125.352 80.6157C126.315 79.8577 126.663 78.8048 126.719 76.5013L126.792 73.4061L125.59 74.8126C124.925 75.5875 124.384 76.5982 124.384 77.053C124.384 77.512 123.953 78.4048 123.435 79.0407C121.444 81.4537 122.838 82.5992 125.352 80.6157ZM152.348 79.0028C152.517 78.1858 152.407 77.5204 152.1 77.5204C151.797 77.5204 151.545 78.1858 151.545 79.0028C151.545 79.8198 151.655 80.4893 151.793 80.4893C151.93 80.4893 152.178 79.8198 152.348 79.0028ZM153.907 77.9542C153.733 77.5499 153.6 78.0258 153.609 79.0028C153.623 79.984 153.769 80.3125 153.934 79.7355C154.095 79.1586 154.086 78.3542 153.907 77.9542ZM148.738 77.9626C148.559 77.5583 148.412 77.891 148.412 78.708C148.412 79.525 148.559 79.8577 148.738 79.4492C148.917 79.0407 148.917 78.3711 148.738 77.9626ZM150.586 78.1268C150.637 77.4952 150.435 77.1161 150.141 77.2846C149.843 77.453 149.605 78.1521 149.605 78.8428C149.605 80.3588 150.453 79.744 150.586 78.1268ZM165.763 78.4932C165.758 78.1226 165.501 77.4573 165.199 77.0151C164.804 76.4424 164.561 76.7245 164.359 77.9921C164.153 79.2891 164.304 79.6892 164.924 79.4744C165.391 79.3102 165.767 78.868 165.763 78.4932ZM227.262 78.1605C230.578 75.1158 229.867 74.303 221.066 71.0983C215.113 68.9253 210.522 67.6325 206.082 66.8702C203.266 66.3859 203.087 66.4196 204.252 67.2029C204.963 67.683 207.582 69.1274 210.072 70.4161C212.563 71.7005 216.636 74.3452 219.126 76.2823C221.616 78.2237 224.038 79.8282 224.51 79.8534C224.983 79.8745 226.221 79.1123 227.262 78.1605ZM174.605 77.074C174.381 75.798 174.445 75.1874 174.757 75.638C175.193 76.2823 175.362 76.2697 175.66 75.5496C175.894 74.9979 175.564 74.5557 174.78 74.3662C174.096 74.202 173.532 73.7598 173.532 73.385C173.532 73.006 173.826 72.8628 174.184 73.0692C174.596 73.3008 174.697 72.6649 174.468 71.3215C174.179 69.6707 174.317 69.2075 175.092 69.2075C175.72 69.2075 175.94 68.8706 175.692 68.281C175.481 67.7714 174.917 67.4935 174.44 67.6619C173.963 67.8304 173.376 67.6704 173.129 67.3082C172.881 66.9334 172.977 66.8113 173.358 67.0303C173.739 67.245 174.17 66.7439 174.349 65.889C174.569 64.832 174.165 63.8255 173.009 62.5664C171.459 60.8734 171.303 60.8271 170.505 61.8294C170.037 62.419 169.652 62.739 169.652 62.5411C169.652 62.3389 169.459 61.7115 169.221 61.1387C168.905 60.3849 169.015 60.2333 169.625 60.5829C170.193 60.9029 170.368 60.785 170.166 60.2333C170.001 59.7785 169.588 59.4079 169.249 59.4079C168.909 59.4079 167.675 58.473 166.506 57.3276L164.382 55.2515L166.006 57.9214C168.533 62.0821 171.546 69.7254 172.257 73.7766C173.023 78.169 173.45 79.3018 174.335 79.3018C174.738 79.3018 174.844 78.4301 174.605 77.074ZM171.592 68.0199C171.592 67.6914 171.721 67.4261 171.877 67.4261C172.037 67.4261 172.344 67.6914 172.565 68.0199C172.785 68.3442 172.656 68.6137 172.276 68.6137C171.899 68.6137 171.592 68.3442 171.592 68.0199ZM170.624 65.051C170.404 64.7225 170.675 64.4572 171.23 64.4572C171.785 64.4572 172.239 64.7225 172.239 65.051C172.239 65.3752 171.964 65.6448 171.629 65.6448C171.294 65.6448 170.845 65.3752 170.624 65.051ZM172.872 64.1456C172.422 63.6444 172.179 63.1222 172.335 62.9833C172.487 62.8443 172.968 63.2486 173.399 63.8887C174.339 65.27 174.028 65.4216 172.872 64.1456ZM156.072 78.1142C156.072 77.7857 155.778 77.5204 155.425 77.5204C155.067 77.5204 154.778 77.7857 154.778 78.1142C154.778 78.4385 155.067 78.708 155.425 78.708C155.778 78.708 156.072 78.4385 156.072 78.1142ZM131.53 76.0044C130.97 74.2862 130.961 74.282 130.906 75.7854C130.874 76.6319 131.044 77.4994 131.282 77.7184C132.03 78.4048 132.117 77.811 131.53 76.0044ZM132.846 75.0821C132.273 73.7724 132.222 73.7598 132.186 74.8968C132.163 75.5791 132.337 76.3118 132.575 76.5308C133.346 77.2383 133.479 76.535 132.846 75.0821ZM142.037 75.9286C145.615 75.579 145.784 75.4906 145.596 74.0167C145.394 72.4122 145.408 72.4164 139.739 72.7112C139.042 72.7449 138.579 73.2797 138.533 74.1051C138.478 75.1116 138.386 75.1832 138.166 74.3999C137.744 72.9302 135.974 73.1113 135.529 74.6652C135.176 75.9117 135.135 75.9202 134.667 74.8168C134.259 73.8567 134.167 73.9535 134.13 75.3685C134.084 76.9814 134.194 77.053 136.185 76.6824C137.341 76.4676 139.973 76.1265 142.037 75.9286ZM140.226 73.9577C140.005 73.6292 140.134 73.3639 140.51 73.3639C140.891 73.3639 141.198 73.6292 141.198 73.9577C141.198 74.282 141.069 74.5515 140.914 74.5515C140.753 74.5515 140.446 74.282 140.226 73.9577ZM59.6098 74.6231C63.5725 72.0543 77.5978 66.4365 83.5648 65.0341C86.0873 64.4403 86.2983 64.2677 85.436 63.476C84.6197 62.7264 84.0051 62.6969 81.6293 63.2865C78.3408 64.0992 77.4557 64.2803 72.6445 65.1184C63.0543 66.7944 52.5972 70.1424 52.5972 71.5405C52.5972 72.6649 55.8031 75.7391 56.9818 75.7391C57.4817 75.7391 58.665 75.2379 59.6098 74.6231ZM153.265 73.2123C153.086 72.8039 152.939 73.1407 152.939 73.9577C152.939 74.7747 153.086 75.1074 153.265 74.6989C153.444 74.2904 153.444 73.6208 153.265 73.2123ZM154.558 73.2123C154.379 72.8039 154.233 73.1407 154.233 73.9577C154.233 74.7747 154.379 75.1074 154.558 74.6989C154.737 74.2904 154.737 73.6208 154.558 73.2123ZM123.091 73.9577C123.091 73.6292 122.797 73.3639 122.444 73.3639C122.086 73.3639 121.797 73.6292 121.797 73.9577C121.797 74.282 122.086 74.5515 122.444 74.5515C122.797 74.5515 123.091 74.282 123.091 73.9577ZM149.995 72.9302C149.779 72.7323 149.628 73.0818 149.655 73.7093C149.687 74.3999 149.839 74.5431 150.045 74.0672C150.233 73.6377 150.21 73.1281 149.995 72.9302ZM188.507 72.9175C186.498 70.3571 184.434 68.5 184.017 68.8832C183.687 69.1864 188.933 74.5515 189.557 74.5515C189.686 74.5515 189.213 73.8145 188.507 72.9175ZM129.356 70.534C129.191 69.9655 129.067 70.5719 129.071 71.8774C129.081 73.1829 129.214 73.6503 129.365 72.9091C129.521 72.1722 129.516 71.1025 129.356 70.534ZM233.431 72.4543C234.33 71.6289 234.954 70.6393 234.812 70.2561C234.477 69.3212 224.52 65.7879 220.8 65.2826C219.167 65.0594 216.232 64.3898 214.278 63.7918C209.513 62.3347 207.403 62.3558 206.977 63.8592C206.564 65.3079 206.591 65.3247 212.457 67.0976C219.919 69.3549 225.607 71.4226 227.955 72.7407C230.753 74.3073 231.454 74.2694 233.431 72.4543ZM128.062 70.5424C127.897 69.9697 127.764 70.4371 127.764 71.5826C127.764 72.7238 127.897 73.1913 128.062 72.6186C128.223 72.05 128.223 71.1151 128.062 70.5424ZM131.498 71.5826C131.498 70.6014 131.204 69.8012 130.851 69.8012C130.493 69.8012 130.204 70.6014 130.204 71.5826C130.204 72.5596 130.493 73.3639 130.851 73.3639C131.204 73.3639 131.498 72.5596 131.498 71.5826ZM163.676 69.6791C163.515 68.6937 163.749 66.9208 164.19 65.7458C164.873 63.9224 164.841 63.5055 163.988 62.9327C163.341 62.499 163.231 62.1242 163.671 61.8715C164.474 61.4209 163.97 59.1131 163.071 59.1131C162.731 59.1131 162.548 59.7111 162.658 60.4481C162.8 61.3704 162.415 61.9642 161.406 62.3684C159.911 62.9706 159.374 63.9771 160.686 63.7118C161.566 63.5349 162.662 66.6891 161.874 67.1355C161.571 67.3082 161.025 66.9755 160.658 66.3986C160.048 65.4384 159.989 65.4595 159.97 66.6133C159.961 67.4303 160.465 68.0115 161.406 68.2473C162.594 68.5463 162.69 68.7147 161.915 69.1738C161.305 69.5317 160.667 69.5065 160.135 69.098C159.516 68.6305 159.305 68.7147 159.305 69.4307C159.305 69.9613 159.525 70.3613 159.791 70.3234C161.19 70.1213 161.796 70.5466 162.195 72.0163C162.598 73.4861 162.704 73.5366 163.3 72.5596C163.662 71.9616 163.832 70.6646 163.676 69.6791ZM126.971 71.511C126.971 71.1825 126.677 71.0815 126.324 71.2836C125.966 71.4857 125.677 71.9195 125.677 72.2438C125.677 72.5722 125.966 72.6733 126.324 72.4712C126.677 72.269 126.971 71.8395 126.971 71.511ZM137.639 71.3173C145.083 70.5887 145.725 70.4203 145.725 69.178C145.725 68.5421 145.431 68.0199 145.078 68.0199C144.72 68.0199 144.427 68.3526 144.422 68.7611C144.413 69.3043 144.262 69.2875 143.853 68.6979C143.45 68.1083 142.569 68.0031 140.629 68.302C139.162 68.5295 137.964 68.8916 137.96 69.1106C137.96 69.3254 137.056 69.5317 135.951 69.5696C134.85 69.6075 133.717 69.9781 133.433 70.3992C133.052 70.9635 132.837 70.8667 132.608 70.0329C132.424 69.3759 132.264 69.7381 132.218 70.913C132.158 72.4459 132.332 72.7702 132.951 72.3069C133.396 71.97 135.506 71.5236 137.639 71.3173ZM147.445 68.4621C147.266 68.0536 147.119 68.3905 147.119 69.2075C147.119 70.0244 147.266 70.3571 147.445 69.9486C147.623 69.5402 147.623 68.8706 147.445 68.4621ZM158.438 68.4621C158.259 68.0536 158.113 68.3905 158.113 69.2075C158.113 70.0244 158.259 70.3571 158.438 69.9486C158.617 69.5402 158.617 68.8706 158.438 68.4621ZM55.982 68.0115C57.8532 67.3545 64.554 65.7585 70.8741 64.4572C77.1942 63.1601 83.1474 61.6273 84.1106 61.0503L85.858 60.0017L82.7667 59.6732C78.9646 59.269 76.2724 59.4206 73.3049 60.2081C72.0528 60.5408 67.3196 61.0419 62.7882 61.324C56.0599 61.7452 54.2254 62.061 52.7669 63.0549C51.0195 64.2466 50.1847 66.6344 50.9094 68.3652C51.3726 69.4686 51.9413 69.4307 55.982 68.0115ZM93.5449 67.3335C94.32 66.9587 95.0997 66.4912 95.2785 66.2933C95.6317 65.9016 100.558 62.7896 102.383 61.8041C103.011 61.4672 105.194 60.1702 107.24 58.9236C109.281 57.6813 113.225 55.6894 116.009 54.4976C118.789 53.3101 120.908 52.1099 120.724 51.8362C120.536 51.5582 119.999 51.6256 119.532 51.9878C119.059 52.3457 117.922 52.7626 117 52.9184C115.248 53.209 110.758 55.3483 106.933 57.7192C105.694 58.4857 104.318 59.1131 103.878 59.1131C103.433 59.1131 100.764 60.1786 97.9432 61.4883C95.1226 62.7938 92.3707 63.8634 91.825 63.8634C90.4949 63.8634 88.0687 67.0892 88.5411 68.2262C88.9355 69.1696 90.2243 68.9422 93.5449 67.3335ZM137.928 67.1397C140.936 66.6344 143.624 65.8932 143.904 65.4889C144.303 64.9036 144.413 64.9078 144.422 65.4932C144.427 65.9016 145.014 66.2385 145.725 66.2385C146.766 66.2385 147.004 65.8637 146.94 64.3056L146.862 62.3769L146.371 64.1582L145.876 65.9396L145.803 64.2719C145.757 63.3075 145.445 62.7601 145.069 62.9748C144.707 63.1812 144.574 63.5939 144.775 63.8971C144.977 64.1961 144.693 64.2845 144.142 64.0866C143.587 63.8929 143.106 63.4297 143.074 63.0549C143.037 62.6843 142.776 63.0464 142.491 63.8634C141.991 65.2868 141.968 65.291 141.909 64.0108C141.831 62.4442 140.583 62.1873 140.473 63.7118C140.404 64.7014 140.386 64.7014 140.106 63.7118C139.758 62.5032 138.863 62.3474 138.391 63.417C138.134 63.9897 137.923 63.9771 137.442 63.3454C136.937 62.6801 136.694 62.7348 136.144 63.6402C135.483 64.7183 135.447 64.7141 134.974 63.5855C134.529 62.5242 134.41 62.579 133.667 64.1793C132.956 65.7037 132.846 65.7627 132.818 64.6214C132.796 63.6444 132.516 63.4002 131.713 63.6823C130.988 63.9392 130.791 63.8339 131.103 63.3707C131.406 62.9243 131.094 62.6758 130.241 62.6758C129.507 62.6758 128.911 62.3642 128.911 61.981C128.911 61.602 128.773 61.4125 128.613 61.5599C128.081 62.0484 129.039 64.453 129.631 64.1161C130.438 63.6571 130.323 65.7585 129.484 66.8323C128.893 67.5861 128.842 67.5693 129.145 66.7018C129.337 66.1417 129.223 65.5226 128.879 65.3289C128.535 65.1352 128.264 65.8174 128.264 66.8744C128.264 68.6853 128.351 68.7526 130.365 68.4115C131.521 68.2178 134.924 67.6451 137.928 67.1397ZM131.598 65.6448C131.598 64.8278 131.745 64.4909 131.924 64.8994C132.103 65.3079 132.103 65.9774 131.924 66.3859C131.745 66.7944 131.598 66.4575 131.598 65.6448ZM237.164 66.7186C238.082 64.3435 237.141 62.1537 234.793 61.1893C229.574 59.0373 211.15 57.3192 205.546 58.4562L203.605 58.8521L205.435 59.9722C206.44 60.5871 211.535 62.1031 216.755 63.337C221.97 64.5709 228.276 66.2428 230.766 67.0513C233.257 67.8599 235.587 68.4494 235.94 68.3694C236.298 68.2852 236.848 67.544 237.164 66.7186ZM155.223 63.4086C155.063 62.8401 154.934 63.4465 154.939 64.752C154.948 66.0575 155.081 66.5249 155.237 65.7837C155.388 65.0468 155.384 63.9771 155.223 63.4086ZM198.106 65.9396C198.106 65.451 197.84 65.051 197.51 65.051C197.184 65.051 194.946 63.8382 192.543 62.3558C190.14 60.8734 186.984 59.1342 185.54 58.4815C182.884 57.2939 182.205 56.9317 177.977 54.5103C174.523 52.531 174.206 52.889 177.477 55.0619C181.967 58.0477 192.167 65.5774 192.607 66.2343C193.281 67.2324 198.106 66.9755 198.106 65.9396ZM150.05 62.8148C149.885 62.2463 149.761 62.8527 149.765 64.1582C149.775 65.4637 149.908 65.9311 150.063 65.1899C150.215 64.453 150.21 63.3833 150.05 62.8148ZM151.288 64.0234C151.072 63.8255 150.921 64.175 150.949 64.8025C150.981 65.4932 151.132 65.6363 151.339 65.1605C151.527 64.7309 151.504 64.2214 151.288 64.0234ZM205.477 64.7057C206.344 62.6337 205.697 61.6904 201.817 59.3321C198.464 57.2939 196.914 56.7675 192.612 56.2032C189.764 55.8326 186.2 55.302 184.691 55.024C181.494 54.4387 181.059 55.0704 183.911 56.1527C184.994 56.5654 188.897 58.7173 192.584 60.9324C198.602 64.5456 200.331 65.2447 204.023 65.5521C204.605 65.6027 205.261 65.2194 205.477 64.7057ZM156.462 62.8359C156.246 62.638 156.095 62.9875 156.122 63.615C156.154 64.3056 156.306 64.4446 156.512 63.9729C156.7 63.5434 156.677 63.0338 156.462 62.8359ZM97.8286 60.3807C102.608 58.4899 106.621 56.6749 106.74 56.3464C107.098 55.3567 88.7612 59.0626 86.7432 60.3849C85.7479 61.0335 84.9315 61.7746 84.9315 62.0315C84.9315 62.5285 87.4266 63.7708 88.4906 63.8002C88.8438 63.8129 93.0495 62.2716 97.8286 60.3807ZM152.838 62.6758C152.838 62.3474 152.531 62.0821 152.155 62.0821C151.774 62.0821 151.646 62.3474 151.866 62.6758C152.086 63.0001 152.398 63.2696 152.554 63.2696C152.71 63.2696 152.838 63.0001 152.838 62.6758ZM63.9119 60.2965C74.5479 59.4121 75.0936 59.1932 70.0577 57.8624C62.6598 55.9084 58.6788 56.2453 55.1702 59.1216L53.01 60.8945L54.9042 60.8903C55.9453 60.8903 59.9997 60.625 63.9119 60.2965ZM234.619 58.2625C232.766 55.6684 228.757 53.5838 223.139 52.2952C219.942 51.5582 217.943 51.4824 213.306 51.9162C210.104 52.2194 207.224 52.3162 206.903 52.1309C206.577 51.9499 206.527 52.1141 206.784 52.4973C207.536 53.6175 213.329 56.0937 217.447 57.0665C220.841 57.8624 231.509 59.4753 234.5 59.6395C235.568 59.6985 235.577 59.6059 234.619 58.2625ZM89.8941 57.9214C91.6094 57.5929 96.8012 56.6748 101.424 55.8831C106.052 55.0914 111.244 53.8912 112.959 53.2132C114.675 52.5394 116.688 51.9835 117.431 51.9835C118.169 51.9835 118.605 51.8277 118.39 51.6298C118.179 51.4361 114.564 51.8235 110.359 52.4973C101.778 53.866 93.7375 54.624 89.5959 54.4597C86.7111 54.346 81.056 56.1906 79.6984 57.6898C79.0747 58.3804 79.5975 58.5152 82.8631 58.5152C85.0141 58.5152 88.1787 58.2498 89.8941 57.9214ZM79.8406 56.2116C81.6339 55.2683 82.8631 54.3587 82.5649 54.1902C82.2668 54.0218 80.2763 53.6891 78.1436 53.4533C76.0063 53.2174 73.4655 52.6489 72.4885 52.1941C70.2871 51.1666 68.4296 51.5751 65.5905 53.7101L63.3891 55.3694L68.5029 56.5906C75.3459 58.2204 76.0476 58.1993 79.8406 56.2116ZM210.595 56.1695C204.812 52.9311 203.862 52.6995 195.836 52.59C186.599 52.4594 185.044 52.3499 183.966 51.7351C183.517 51.4824 182.989 51.415 182.801 51.5919C182.609 51.7646 181.829 51.693 181.063 51.4277C180.302 51.1624 177.642 50.7749 175.151 50.5686C170.817 50.2106 170.698 50.2317 172.418 51.116C173.404 51.6214 174.472 51.8867 174.798 51.7056C175.119 51.5203 175.573 51.6551 175.807 52.0046C176.041 52.3499 176.72 52.5815 177.307 52.5142C177.899 52.451 178.82 52.5605 179.352 52.7584C180.398 53.1458 184.797 53.9207 193.658 55.2725C196.721 55.74 199.923 56.3759 200.771 56.6875C201.62 56.9991 204.642 57.2686 207.486 57.2897L212.659 57.3234L210.595 56.1695ZM60.3574 52.7037C60.3574 52.4468 59.4539 52.173 58.3486 52.0972C55.3445 51.8867 48.8501 49.7516 44.8351 47.6502C42.879 46.6269 41.1325 45.8225 40.955 45.8646C40.2345 46.0289 36.042 44.138 34.0671 42.7525C32.9081 41.9419 30.7098 40.78 29.1816 40.1711C27.6539 39.5625 25.5304 38.2078 24.4636 37.1609C23.3963 36.114 21.1407 33.9709 19.451 32.398C17.7619 30.8251 16.3795 29.248 16.3795 28.8938C16.3795 28.5392 15.2659 27.5727 13.9051 26.7461C12.5443 25.9194 10.812 24.2311 10.0553 22.9951C9.29851 21.7591 8.07714 20.2469 7.34056 19.635C5.90455 18.4415 3.74484 12.6709 4.00251 10.7152C4.08855 10.062 5.29685 8.52536 6.68699 7.30073C8.0776 6.07569 8.97746 5.07384 8.68668 5.07384C7.75976 5.07384 2.3308 9.1322 1.90977 10.1395C0.996148 12.326 1.64192 15.1951 4.09676 19.8561C6.30999 24.0585 7.70105 25.6903 13.6154 31.023C26.0639 42.2472 38.4326 49.7179 48.7172 52.2278C52.524 53.1585 60.3574 53.4785 60.3574 52.7037ZM104.011 52.291C112.817 50.9686 120.458 48.0839 119.449 46.4668C119.201 46.071 119.233 45.9404 119.513 46.1763C120.357 46.8753 122.43 45.5235 122.017 44.5423C121.719 43.818 120.545 43.6748 115.963 43.8053C112.84 43.898 110.372 44.1043 110.483 44.2644C110.588 44.4286 108.74 44.5086 106.373 44.4412C104.007 44.3739 101.053 44.5676 99.8053 44.8708C98.5624 45.174 93.9072 46.3573 89.4583 47.4944C85.0141 48.6314 79.2673 49.8948 76.6897 50.2991C74.1121 50.7075 72.2363 51.255 72.5252 51.5203C74.2956 53.1458 94.9712 53.6512 104.011 52.291ZM151.361 48.5724C151.215 47.6712 151.091 48.4082 151.091 50.2022C151.091 52.0004 151.215 52.7331 151.361 51.8362C151.508 50.9392 151.508 49.4694 151.361 48.5724ZM67.4939 50.2022C67.7553 49.7137 68.7644 47.8902 69.7275 46.1552C70.6907 44.4202 71.3144 42.8452 71.1126 42.6641C70.4247 42.032 58.743 42.3272 55.8948 43.0473C51.2992 44.2096 45.9973 46.5595 46.4468 47.2291C46.965 47.9955 50.6801 49.5242 54.5373 50.5559C58.5091 51.6172 66.8518 51.394 67.4939 50.2022ZM211.366 50.8381C213.856 50.5812 215.31 50.3243 214.599 50.2654C213.888 50.2106 210.251 49.3515 206.518 48.3661C198.336 46.2015 199.959 46.5089 189.053 45.0813C179.385 43.8138 170.051 43.1737 169.386 43.7253C167.634 45.1866 179.472 50.2696 184.957 50.4128C186.851 50.4591 188.401 50.6865 188.401 50.9097C188.411 51.4698 205.757 51.4108 211.366 50.8381ZM176.486 45.2793C176.729 44.6939 177.091 44.3654 177.289 44.5465C177.486 44.7276 177.289 45.2077 176.848 45.612C176.206 46.1931 176.133 46.1257 176.486 45.2793ZM226.405 50.3875C225.781 50.2401 224.763 50.2401 224.139 50.3875C223.515 50.5391 224.024 50.6612 225.272 50.6612C226.515 50.6612 227.024 50.5391 226.405 50.3875ZM77.1713 49.0357C92.8385 46.0794 114.679 39.9719 114.679 38.5417C114.679 38.0974 114.101 37.7336 113.386 37.7336C111.735 37.7336 111.73 36.8467 113.386 35.7842C114.092 35.3281 114.454 34.7419 114.193 34.4817C113.927 34.221 114.147 34.1448 114.679 34.312C115.216 34.4792 115.578 34.9167 115.491 35.2843C115.399 35.6516 115.945 35.9522 116.702 35.9522C117.848 35.9522 117.94 35.8057 117.266 35.0616C116.826 34.5718 116.688 34.1709 116.968 34.1709C118.096 34.1709 114.913 31.6934 111.519 29.931C107.749 27.9724 96.0766 22.307 91.9167 20.4141C87.3073 18.3186 88.5961 19.352 94.3383 22.3592C97.5213 24.0277 100.567 25.7257 101.099 26.1325C102.502 27.2013 108.139 29.8043 110.946 30.6785C112.271 31.0912 114.161 32.059 115.147 32.8292L116.945 34.2299L115.326 33.8247C114.441 33.602 113.615 33.188 113.496 32.9046C113.377 32.6212 113.014 32.3891 112.689 32.3891C111.978 32.3891 111.886 34.5583 112.579 34.9146C112.845 35.0519 112.629 35.0363 112.092 34.8801C111.56 34.7242 110.295 34.4665 109.281 34.3078C107.456 34.0214 107.451 34.0315 108.616 35.2822C109.263 35.9775 110.239 36.5629 110.781 36.5835C111.368 36.6062 111.18 36.8391 110.317 37.1583C108.671 37.7648 108.354 38.9212 109.831 38.9212C110.363 38.9212 110.799 39.1886 110.799 39.5149C110.799 40.2894 107.763 40.2877 107.245 39.5137C107.015 39.1759 105.392 39.0433 103.488 39.2071C101.64 39.3659 98.0946 39.6341 95.6042 39.8038C91.6094 40.0755 84.0188 40.7985 77.1713 41.5587C75.9284 41.6972 74.7038 41.8282 74.4561 41.8505C73.9883 41.8913 69.411 49.1199 69.411 49.8148C69.411 50.4043 70.4843 50.2948 77.1713 49.0357ZM153.228 48.5851C153.013 48.3872 152.861 48.7367 152.889 49.3642C152.921 50.0548 153.072 50.1938 153.279 49.7221C153.467 49.2926 153.444 48.7788 153.228 48.5851ZM220.892 49.2757C221.089 49.0946 220.268 47.9576 219.062 46.7532C217.856 45.5488 216.869 44.3191 216.865 44.0243C216.865 43.7295 216.149 42.6262 215.278 41.5784L213.691 39.6699L203.798 39.2576C198.359 39.0311 191.066 38.4436 187.603 37.9522C184.136 37.4607 180.738 37.2215 180.054 37.4211C179.371 37.6203 178.279 37.902 177.628 38.0465C171.693 39.3642 171.808 39.3191 173.532 39.6762C179.71 40.9543 185.673 42.0564 186.631 42.0968C187.25 42.1251 187.759 42.323 187.759 42.5462C187.759 42.7652 188.709 43.1105 189.865 43.3126C193.162 43.8854 194.034 44.0875 202.959 46.3826C213.099 48.9894 219.993 50.1011 220.892 49.2757ZM237.008 48.1598C239.004 47.6291 241.127 46.69 241.732 46.0794C242.783 45.0098 242.709 44.896 240.031 43.4727C235.123 40.8529 229.276 39.3802 222.52 39.061C219.053 38.8967 216.218 38.9473 216.218 39.173C216.218 40.2022 219.796 45.3761 221.933 47.4438L224.299 49.7305L228.84 49.4273C231.34 49.2631 235.013 48.6946 237.008 48.1598ZM172.73 48.6777C171.977 47.9829 168.34 47.7807 167.235 48.3703C166.354 48.842 166.887 48.9851 169.597 48.9978C171.523 49.0062 172.936 48.863 172.73 48.6777ZM166.405 44.5844C167.785 43.2284 167.831 43.0726 166.726 43.4474C166.024 43.6832 164.809 44.2559 164.025 44.715C163.227 45.1824 162.02 45.3803 161.277 45.1656C159.479 44.6434 159.589 45.713 161.406 46.4753C163.089 47.1827 164.176 46.77 166.405 44.5844ZM168.359 45.7172C168.359 45.5698 168.07 45.4519 167.712 45.4519C167.359 45.4519 167.065 45.7383 167.065 46.0836C167.065 46.4289 167.359 46.5469 167.712 46.3447C168.07 46.1426 168.359 45.8604 168.359 45.7172ZM45.8643 45.1993C47.6448 44.0538 54.4648 41.8905 56.2948 41.8905C58.3954 41.8905 58.1569 41.2971 54.8638 38.3312L51.956 35.7118L46.3743 37.0569C39.4814 38.7165 33.8419 40.6221 33.8419 41.2908C33.8419 42.3146 41.5173 45.9278 43.8839 46.0204C44.2494 46.0373 45.1406 45.6667 45.8643 45.1993ZM157.094 42.0375C156.347 41.3523 155.966 42.4241 156.475 43.7759L156.994 45.1571L157.232 43.7674C157.36 43.0052 157.301 42.2261 157.094 42.0375ZM129.649 42.3777C129.067 42.1545 128.003 41.9638 127.292 41.952C126.072 41.9313 126.086 41.9966 127.503 43.081C128.695 43.9948 129.181 44.0833 129.86 43.5063C130.562 42.9083 130.525 42.7104 129.649 42.3777ZM159.259 41.7069C159.287 41.4428 159.016 41.3915 158.658 41.5936C158.301 41.7953 158.03 42.5462 158.058 43.2621C158.099 44.517 158.122 44.5212 158.658 43.3758C158.966 42.7231 159.236 41.9709 159.259 41.7069ZM250.286 42.4367C251.818 41.3237 253.68 39.3305 253.703 38.7759C253.726 38.372 250.112 36.7056 246.938 35.652C243.585 34.5406 233.298 32.5887 232.83 32.9757C232.541 33.2154 232.399 34.6661 232.509 36.2003C232.706 38.9873 232.711 38.9898 236.371 40.3521C238.384 41.1022 240.82 42.243 241.783 42.8873C243.168 43.8138 244.108 43.9738 246.333 43.6664C247.869 43.4516 249.653 42.8957 250.286 42.4367ZM163.823 42.9126C163.837 43.8896 165.864 43.1526 166.942 41.781C167.469 41.1064 168.68 40.6743 170.175 40.6271C172.028 40.5682 171.661 40.4241 168.538 39.9832C165.662 39.5777 164.089 39.0075 163.038 37.9909C162.231 37.2076 161.131 36.5831 160.599 36.6033C160.048 36.6239 159.947 36.7595 160.369 36.9183C161.47 37.3327 160.621 39.5149 159.36 39.5149C158.759 39.5149 157.883 39.181 157.416 38.7729C156.728 38.1775 156.494 38.1909 156.237 38.8399C155.966 39.5234 155.829 39.5234 155.356 38.8399C154.911 38.1981 154.797 38.1914 154.787 38.8079C154.783 39.2353 154.485 39.4202 154.132 39.218C153.031 38.5935 153.375 37.1394 154.531 37.5453C155.42 37.8599 155.466 37.7256 154.824 36.6239C154.411 35.9143 154.251 35.0056 154.471 34.6038C154.691 34.2025 154.416 34.3924 153.856 35.0266C153.297 35.6604 152.838 36.4138 152.838 36.701C152.838 37.721 149.935 36.8235 149.71 35.7333C149.582 35.1231 149.747 34.7756 150.073 34.9609C150.715 35.3248 152.838 33.3447 152.838 32.3824C152.838 32.0598 153.127 31.7953 153.485 31.7953C153.838 31.7953 154.15 31.1944 154.178 30.4595C154.219 29.1903 154.246 29.1827 154.751 30.3109C155.228 31.3864 155.324 31.3334 155.774 29.7512C156.246 28.1029 156.306 28.0768 156.792 29.288C157.122 30.1066 156.971 31.17 156.37 32.2228C155.856 33.1307 155.466 34.4084 155.503 35.0616C155.572 36.175 155.595 36.1788 155.888 35.1239C156.141 34.2197 156.315 34.1612 156.773 34.827C157.182 35.4183 157.36 35.1454 157.402 33.874C157.448 32.3015 157.526 32.2316 158.067 33.2802C158.571 34.2627 158.631 34.1642 158.406 32.7092C158.232 31.5587 158.507 30.6705 159.209 30.1412C160.172 29.4109 160.14 29.3587 158.874 29.6042C157.897 29.7946 157.379 29.5415 157.159 28.7574C156.957 28.0528 156.264 27.6389 155.283 27.6389C153.54 27.6389 151.935 29.3751 149.664 33.7253C148.857 35.2768 147.931 36.546 147.605 36.546C147.284 36.546 147.023 37.0135 147.027 37.5854C147.036 38.407 147.156 38.4533 147.601 37.806C147.963 37.2855 148.486 37.1739 149.045 37.4999C149.912 38.0031 150.247 38.1046 151.545 38.2533C152.627 38.3775 152.265 39.4135 151.059 39.6493C150.435 39.7706 152.072 40.062 154.687 40.297C158.374 40.6271 159.892 40.5197 161.415 39.8224C163.901 38.6849 164.199 38.6908 163.144 39.8573C162.447 40.6313 162.456 40.8815 163.194 41.3026C163.69 41.5827 164.401 41.6534 164.772 41.4593C165.153 41.2605 165.212 41.343 164.91 41.6467C164.612 41.944 164.057 42.1882 163.671 42.1882C163.286 42.1882 162.85 42.5883 162.704 43.0768C162.47 43.8685 162.516 43.8685 163.126 43.0768C163.571 42.5041 163.814 42.4451 163.823 42.9126ZM185.819 43.2789C185.287 43.1189 184.416 42.8325 183.879 42.643C182.113 42.0265 181.017 41.9023 175.651 41.7115C172.725 41.6079 170.482 41.6639 170.67 41.8362C170.858 42.0088 173.982 42.4535 177.61 42.8283C185.145 43.6032 187.25 43.7211 185.819 43.2789ZM118.399 41.1068C118.844 40.8461 119.211 40.3601 119.211 40.0266C119.211 39.3107 115.766 39.8885 113.427 40.9977C111.946 41.6989 112.028 41.7406 114.72 41.6635C116.298 41.618 117.954 41.3679 118.399 41.1068ZM72.273 39.8118C73.1857 38.7005 73.2499 38.6946 73.2682 39.7192C73.2866 40.6747 73.681 40.772 76.3641 40.4818C81.9962 39.8721 89.1235 39.2757 90.2656 39.3183C90.8893 39.3414 91.3984 39.1364 91.3984 38.8626C91.3984 38.5889 91.8158 38.5118 92.3249 38.6912C93.6274 39.1502 107.056 37.8452 107.772 37.1899C108.125 36.8657 107.877 36.0638 107.153 35.1828C106.208 34.0311 105.167 33.6403 102.3 33.3649C100.292 33.172 97.9616 32.7702 97.1269 32.4717C91.7837 30.5686 81.8082 30.2385 73.9929 31.7061C72.7913 31.9314 69.6816 31.8678 67.0811 31.565C62.4901 31.0302 62.2287 31.0702 58.0871 32.9421C55.7389 34.0029 53.9089 35.0986 54.0144 35.3774C54.1245 35.6562 55.3766 37.0716 56.7984 38.5228L59.3851 41.1611L65.3429 41.0803C70.4797 41.0108 71.4291 40.8368 72.273 39.8118ZM70.8191 35.556C70.9337 35.0115 71.4658 34.4568 71.9978 34.3233C72.7958 34.1237 72.8096 34.1823 72.0758 34.6531C71.585 34.9681 71.3832 35.5227 71.6309 35.8857C71.874 36.2491 71.7455 36.546 71.3419 36.546C70.9383 36.546 70.7044 36.1005 70.8191 35.556ZM135.699 40.6996C137.836 40.3749 141.909 40.067 144.752 40.0157C149.059 39.9378 149.632 39.8198 148.174 39.3149C147.211 38.9814 146.298 38.2886 146.147 37.7757C145.908 36.9642 145.862 36.9697 145.798 37.817C145.748 38.4634 144.986 38.8706 143.532 39.0264C140.716 39.328 139.9 39.0584 139.914 37.8326C139.923 36.9768 140.01 36.9634 140.551 37.7336C141.106 38.5253 141.18 38.5253 141.198 37.7336C141.216 36.9419 141.285 36.9419 141.845 37.7336C142.299 38.3809 142.473 38.412 142.482 37.8473C142.487 37.4194 142.78 37.235 143.138 37.4367C143.491 37.6384 143.789 37.454 143.794 37.0265C143.803 36.3974 143.908 36.3999 144.349 37.0413C145.101 38.1303 145.702 36.6201 145.803 33.38C145.871 31.0841 145.908 31.0339 146.326 32.6864L146.78 34.4678L147.252 32.0804C147.963 28.5186 148.738 27.6149 149.531 29.4345C150.146 30.8487 150.169 30.8546 150.21 29.5874C150.238 28.6677 150.545 28.3733 151.219 28.6117C151.756 28.7999 152.192 28.6862 152.192 28.3598C152.192 27.3517 150.779 27.1807 144.184 27.3896C140.148 27.5172 137.309 27.8957 136.433 28.4243C135.63 28.9052 134.089 29.149 132.786 29.0012L130.525 28.7451L132.075 29.8919C132.924 30.5227 133.428 31.3245 133.195 31.6732C132.961 32.0223 133.392 32.7104 134.158 33.2023C135.469 34.0467 135.488 34.154 134.442 35.1134C133.621 35.8663 133.392 35.9105 133.548 35.2835C133.662 34.8182 133.066 33.6424 132.218 32.6709L130.677 30.9047L131.039 34.7647C131.236 36.8876 131.25 38.1568 131.076 37.5854C130.489 35.6874 129.434 36.4643 129.865 38.476C130.177 39.9112 130.108 40.1778 129.603 39.5149C129.232 39.0252 128.925 38.8028 128.92 39.0214C128.915 39.2395 128.732 39.8405 128.516 40.3572C128.044 41.4921 129.906 41.581 135.699 40.6996ZM132.241 36.5671C132.314 34.5436 132.406 34.317 132.621 35.6553C132.773 36.6353 133.314 37.6506 133.814 37.9117C135.13 38.5939 134.942 39.2606 133.438 39.2606C132.319 39.2606 132.158 38.8942 132.241 36.5671ZM137.368 38.674C137.341 38.0477 137.492 37.6974 137.708 37.8945C137.923 38.092 137.946 38.6041 137.758 39.0328C137.552 39.5065 137.4 39.3654 137.368 38.674ZM138.712 38.3274C138.712 37.5108 138.859 37.1769 139.038 37.5854C139.217 37.9934 139.217 38.6613 139.038 39.0698C138.859 39.4779 138.712 39.1439 138.712 38.3274ZM139.905 34.4678C139.07 33.6512 138.675 32.9833 139.033 32.9833C139.386 32.9833 140.363 33.6512 141.198 34.4678C142.033 35.2843 142.422 35.9522 142.069 35.9522C141.712 35.9522 140.739 35.2843 139.905 34.4678ZM144.482 33.9233C144.454 33.2975 144.606 32.9467 144.821 33.1438C145.037 33.3413 145.06 33.8534 144.872 34.2821C144.665 34.7558 144.514 34.6152 144.482 33.9233ZM136.079 31.2466C135.3 30.7939 135.314 30.5812 136.162 29.803C137.056 28.9818 137.153 29.0357 137.153 30.3429C137.153 31.1418 137.121 31.7916 137.075 31.7865C137.029 31.7814 136.584 31.5385 136.079 31.2466ZM146.472 29.4202C146.472 28.6037 146.619 28.2697 146.798 28.6782C146.977 29.0863 146.977 29.7542 146.798 30.1626C146.619 30.5707 146.472 30.2368 146.472 29.4202ZM38.1591 38.1244C41.6553 37.0324 45.679 35.9543 47.1026 35.7278C49.671 35.3185 59.0641 31.2984 59.0641 30.6069C59.0641 30.4077 56.4911 29.8948 53.3494 29.467C44.6842 28.2882 33.491 30.0481 25.4918 33.8462L23.3623 34.8573L24.8135 36.2752C25.9097 37.3466 30.858 40.1049 31.6899 40.1083C31.7519 40.1087 34.6629 39.2159 38.1591 38.1244ZM119.706 38.3274C121.329 38.3274 121.348 38.2941 120.142 37.4557C118.619 36.4003 117.665 36.2883 118.307 37.2409C118.614 37.7007 118.426 37.8136 117.752 37.5752C117.142 37.3613 116.573 37.5887 116.344 38.1341C116.069 38.7957 116.248 38.9519 116.991 38.6904C117.555 38.4908 118.779 38.3274 119.706 38.3274ZM167.712 38.3274C167.712 38.001 167.437 37.7336 167.102 37.7336C166.767 37.7336 166.313 38.001 166.098 38.3274C165.877 38.6542 166.148 38.9212 166.703 38.9212C167.258 38.9212 167.712 38.6542 167.712 38.3274ZM174.142 37.1971C174.399 36.8168 175.027 36.6547 175.546 36.8362C176.192 37.0653 176.523 36.7069 176.619 35.6688C176.779 33.8639 175.926 33.7552 174.179 35.3585C173.468 36.0116 172.886 36.4264 172.886 36.2799C172.886 36.1337 172.014 36.2934 170.945 36.6349C169.877 36.9764 169.005 37.475 169.005 37.7424C169.005 38.4786 173.606 37.9901 174.142 37.1971ZM216.746 36.6947C218.186 35.1719 218.227 35.1618 217.346 36.546L216.406 38.0305L223.749 38.0915L231.092 38.1526V35.9131C231.092 32.6953 230.592 31.8888 227.785 30.5745C225.896 29.6889 224.616 29.4981 222.529 29.79C221.016 30.0026 219.484 30.3795 219.126 30.6284C218.773 30.8773 216.879 30.8541 214.925 30.577C211.37 30.0742 207.55 29.6076 203.294 29.157C201.817 29.0012 199.28 29.5423 195.946 30.7227C190.635 32.6031 183.444 36.1156 184.342 36.3911C186.397 37.0194 201.115 38.2116 207.463 38.2638C215.131 38.327 215.209 38.3135 216.746 36.6947ZM216.865 32.3891C216.865 32.0628 217.135 31.7953 217.47 31.7953C217.805 31.7953 218.259 32.0628 218.479 32.3891C218.699 32.7159 218.424 32.9833 217.874 32.9833C217.319 32.9833 216.865 32.7159 216.865 32.3891ZM169.978 35.4802C172.11 34.635 174.876 33.2356 176.119 32.371C183.416 27.3024 197.597 19.1663 207.486 14.3748C211.187 12.5808 208.394 13.399 203.427 15.5627C197.317 18.2242 189.255 22.6027 182.159 27.1146C180.678 28.0562 179.261 28.8264 179.013 28.8264C178.765 28.8264 176.885 29.9837 174.835 31.3982C172.785 32.8128 169.326 34.5823 167.148 35.3307C164.969 36.0786 163.185 36.9436 163.185 37.2523C163.185 37.9383 164.901 37.491 169.978 35.4802ZM260.982 34.6476C261.963 33.5687 262.693 32.2944 262.605 31.816C262.518 31.3372 260.275 29.9251 257.625 28.6778C252.951 26.4816 246.612 25.0574 241.531 25.0599C239.137 25.0612 227.891 28.2739 227.868 28.9629C227.845 29.9247 233.092 31.6888 239.618 32.9105C245.86 34.0791 252.538 36.0638 253.937 37.1668C255.079 38.0638 259.23 36.5793 260.982 34.6476ZM178.66 35.7754C178.715 36.6062 182.421 36.3409 183.407 35.4359C183.82 35.0569 182.948 34.8906 180.898 34.958C178.284 35.0439 177.724 35.262 177.591 36.2491C177.426 37.4367 177.426 37.4367 178.018 36.2491C178.348 35.596 178.637 35.3829 178.66 35.7754ZM119.857 35.7282C119.857 35.6048 119.344 35.137 118.724 34.6889C117.697 33.9502 117.674 33.9713 118.481 34.9129C119.325 35.9021 119.857 36.2167 119.857 35.7282ZM129.979 32.5285C130.695 30.6149 130.667 30.1934 129.773 29.4219C128.842 28.618 128.773 28.6618 129.085 29.8658C129.278 30.6006 129.172 31.2352 128.847 31.2761C128.526 31.3169 127.897 31.3923 127.452 31.4441C127.007 31.4959 126.457 31.29 126.228 30.9868C125.742 30.35 123.737 30.9101 123.737 31.6821C123.737 32.3445 128.411 35.4191 128.833 35.0329C129.007 34.8729 129.521 33.746 129.979 32.5285ZM126.498 32.6245C126.714 32.427 127.269 32.406 127.737 32.5774C128.255 32.7669 128.099 32.9079 127.347 32.9362C126.663 32.9618 126.283 32.8216 126.498 32.6245ZM120.123 33.3649C119.898 32.8284 119.44 32.3891 119.1 32.3891C118.761 32.3891 118.656 32.1377 118.862 31.8303C119.38 31.058 114.326 26.7103 111.505 25.5008C110.226 24.9546 105.983 23.1055 102.071 21.3923C95.9252 18.7022 87.688 15.8483 74.9056 11.984C68.8469 10.1509 69.7138 11.0538 76.199 13.327C83.4272 15.8592 87.5045 17.5231 95.9757 21.3936C99.2825 22.9059 102.236 23.8934 102.883 23.703C103.69 23.4651 103.773 23.5262 103.186 23.917C102.562 24.3271 102.764 24.6346 103.993 25.1479C104.983 25.5619 105.626 25.6027 105.626 25.2507C105.626 24.931 105.951 24.6695 106.341 24.6695C106.735 24.6695 106.905 25.0367 106.717 25.4857C106.515 25.9687 107.079 26.629 108.102 27.1049C109.052 27.5471 110.992 28.5607 112.413 29.3575C113.835 30.1538 115.344 30.8057 115.775 30.8057C116.202 30.8057 116.491 30.9805 116.422 31.194C116.289 31.6071 120.054 34.7756 120.357 34.5023C120.453 34.4135 120.348 33.9018 120.123 33.3649ZM166.561 33.7253C168.45 31.7368 169.028 30.1631 168.395 28.7224C168.065 27.9631 167.776 27.6915 167.753 28.1194C167.73 28.5468 167.423 28.7313 167.065 28.5295C166.712 28.3278 166.419 28.4259 166.419 28.7477C166.419 29.0698 166.928 29.4257 167.552 29.539C168.478 29.7078 168.249 30.1589 166.258 32.0489C164.924 33.316 163.832 34.4455 163.832 34.5588C163.832 35.1887 165.717 34.6135 166.561 33.7253ZM111.849 31.9996C111.542 31.6433 107.245 31.3532 106.442 31.6349C105.781 31.8682 106.396 32.3074 108.29 32.9581C110.836 33.8327 111.166 33.8382 111.528 33.012C111.748 32.5062 111.895 32.0505 111.849 31.9996ZM161.571 33.5771C161.351 33.2503 161.695 32.9618 162.337 32.9362C163.016 32.9092 163.171 32.7635 162.699 32.59C161.837 32.2699 161.562 31.154 162.378 31.2719C164.823 31.6269 166.309 29.9635 164.203 29.2227C162.938 28.7772 160.108 32.9298 161.076 33.8159C161.69 34.3806 162.007 34.2273 161.571 33.5771ZM30.4034 30.5703C32.3091 29.9685 37.0533 29.0269 40.9458 28.4782L48.0213 27.4805L45.0488 24.2838L42.0741 21.0875L38.7668 21.4462C25.6546 22.8688 20.3949 24.3318 17.7077 27.3049C16.6373 28.4891 18.1251 30.7484 21.0503 32.382C22.9083 33.4196 23.2105 33.4352 25.0006 32.5854C26.0665 32.0792 28.4982 31.1725 30.4034 30.5703ZM173.532 31.2647C174.78 30.4136 175.894 29.5166 176.014 29.272C176.133 29.0269 176.523 28.8264 176.88 28.8264C177.238 28.8264 178.307 28.2651 179.252 27.5791C181.93 25.6364 197.827 17.1765 203.931 14.4459C206.954 13.0933 212.921 10.8462 217.186 9.45267C225.446 6.7558 226.097 5.89797 218.085 8.26974C207.293 11.4644 193.442 16.7971 188.186 19.7815C186.815 20.5581 183.471 22.286 180.747 23.6213C172.73 27.5542 171.202 28.6028 169.73 31.2007L168.331 33.6655L169.799 33.2389C170.606 33.0044 172.289 32.1158 173.532 31.2647ZM190.039 30.863C193.96 29.4657 198.038 28.1274 199.092 27.8886C200.152 27.6498 204.876 25.7489 209.586 23.6647C217.424 20.198 218.277 19.6611 219.603 17.3731C221.901 13.3986 222.112 12.278 220.685 11.5777C218.516 10.5118 211.554 12.9446 200.799 18.5279C192.401 22.8844 185.232 27.3243 185.2 28.1829C185.186 28.6458 184.989 28.8534 184.76 28.6441C184.072 28.0137 180.646 30.1959 180.646 31.2639C180.646 31.8227 180.183 32.2211 179.586 32.1748C178.999 32.1297 178.408 32.3954 178.261 32.7656C177.71 34.1978 183.145 33.3198 190.039 30.863ZM104.415 31.4597L106.373 30.5299L104.933 29.3815C104.14 28.7494 103.126 28.2326 102.686 28.2326C102.245 28.2326 101.709 27.8149 101.498 27.3041C101.282 26.7937 100.846 26.525 100.525 26.7069C100.204 26.8893 99.7686 26.6273 99.5623 26.1253C99.2641 25.4115 98.8972 25.3505 97.8928 25.8453C96.87 26.346 96.6728 26.3073 96.9434 25.6621C97.136 25.2035 96.5719 24.4164 95.6592 23.8669C93.7146 22.6974 93.1137 22.6258 93.6824 23.6306C93.9118 24.0387 93.5632 23.794 92.9119 23.0869C92.2561 22.3795 88.6649 20.4507 84.9315 18.8008C78.483 15.9506 76.5613 14.7681 81.3954 16.6227C82.6292 17.096 83.6382 17.3496 83.6382 17.1866C83.6382 16.4972 78.9095 15.1168 78.3408 15.6398C77.9693 15.9805 76.3962 15.7392 74.2406 15.0098C70.9337 13.8913 70.6219 13.8808 68.4938 14.8094L66.2372 15.791L67.5902 17.8945C68.5763 19.4295 70.099 20.4958 73.2178 21.8387C75.5706 22.8511 79.093 24.7799 81.0514 26.1253C84.4454 28.4596 88.9676 29.8089 100.778 32.0105C101.489 32.1432 102.158 32.2826 102.264 32.3205C102.369 32.3584 103.337 31.9709 104.415 31.4597ZM102.819 30.3412C102.58 29.7659 102.768 29.5903 103.397 29.811C104.419 30.1715 104.685 31.2016 103.754 31.2016C103.438 31.2016 103.016 30.8145 102.819 30.3412ZM99.1586 28.2326C99.1586 27.9059 99.2871 27.6389 99.443 27.6389C99.6035 27.6389 99.9108 27.9059 100.131 28.2326C100.351 28.559 100.223 28.8264 99.8466 28.8264C99.4659 28.8264 99.1586 28.559 99.1586 28.2326ZM268.889 27.5677C270.567 25.7366 270.586 25.636 269.453 24.5962C267.976 23.2436 258.808 20.1782 253.524 19.2703C246.135 18.0006 245.989 18.0074 245.305 19.6577C243.558 23.8715 243.485 23.7671 249.02 24.8586C254.364 25.9131 263.426 29.5255 263.426 30.5998C263.426 31.6269 266.976 29.6573 268.889 27.5677ZM77.951 29.9192C80.6937 29.536 82.7667 28.9738 82.5603 28.6693C81.8357 27.5862 72.4564 22.2944 71.2686 22.2944C70.4568 22.2944 70.0394 22.7374 70.0073 23.6306C69.9614 24.8594 69.9064 24.8384 69.3193 23.3678C68.7919 22.0434 68.1039 21.6694 65.3291 21.1873C63.4808 20.8676 60.9537 20.4221 59.7107 20.1976C48.951 18.2579 48.8684 18.2537 46.1716 19.5125C43.1835 20.9055 43.2817 21.3052 47.5338 25.0666C50.1022 27.3369 50.8681 27.641 56.7984 28.7473C68.0168 30.8381 70.4201 30.9716 77.951 29.9192ZM229.473 27.1289C232.321 26.178 236.339 25.0561 238.407 24.635C242.526 23.7974 244.026 22.2476 244.026 18.837C244.026 17.267 243.764 17.056 241.278 16.6202C237.664 15.9868 236.435 16.1165 229.152 17.8996C221.525 19.7668 215.228 22.3007 216.374 23.0381C216.897 23.3725 216.677 23.4293 215.773 23.196C213.888 22.7109 203.587 26.968 204.537 27.8397C205.669 28.8791 210.444 29.341 217.512 29.0943C222.956 28.9039 225.327 28.5148 229.473 27.1289ZM216.865 27.6738C216.865 27.3281 217.154 27.0451 217.512 27.0451C217.865 27.0451 218.158 27.163 218.158 27.307C218.158 27.451 217.865 27.734 217.512 27.9357C217.154 28.1375 216.865 28.0196 216.865 27.6738ZM131.736 27.6683C132.846 27.2809 133.424 27.3108 133.589 27.7635C133.754 28.2145 134.185 28.2381 134.965 27.8376C135.979 27.3175 135.997 27.1693 135.121 26.5014C134.346 25.9127 133.639 25.9 131.846 26.4437C130.585 26.8248 129.558 27.3837 129.558 27.6848C129.558 28.3678 129.736 28.3666 131.736 27.6683ZM159.305 27.0367C159.305 26.5688 156.278 25.796 153.485 25.5518C152.953 25.505 152.04 25.4208 151.458 25.3652C150.875 25.3092 149.908 24.5731 149.307 23.7287C148.307 22.3289 148.298 22.1032 149.229 21.1582C150.32 20.0528 150.646 18.4386 149.664 18.994C149.343 19.1772 149.22 18.8222 149.398 18.2057C149.573 17.5888 149.398 16.9044 149.013 16.685C148.628 16.4656 148.311 16.5625 148.311 16.9002C148.311 17.3155 147.77 17.3256 146.637 16.931C145.72 16.6105 144.697 16.5018 144.367 16.6901C144.032 16.8783 142.968 17.1613 141.996 17.3192C139.299 17.7564 137.799 19.4076 138.331 21.3507C138.648 22.5075 138.973 22.7917 139.469 22.3378C141.244 20.7089 141.037 21.955 139.18 24.0757C138.038 25.3821 137.295 26.629 137.533 26.8467C137.767 27.0649 137.964 26.9394 137.964 26.5688C137.964 26.1982 138.4 26.0483 138.932 26.2365C139.501 26.4361 139.909 26.2433 139.914 25.7724C139.923 25.1509 140.065 25.1702 140.551 25.8575C141.005 26.5048 141.18 26.5355 141.189 25.9708C141.193 25.5434 141.487 25.3585 141.845 25.5606C142.198 25.7623 142.491 25.6288 142.491 25.2637C142.491 24.8982 142.78 24.7647 143.138 24.9668C143.514 25.1795 143.785 24.5979 143.785 23.5805C143.785 22.5664 144.193 21.6829 144.757 21.4841C145.541 21.2079 145.683 21.5713 145.486 23.3506C145.353 24.5659 145.381 25.0283 145.55 24.3777C145.816 23.3455 145.963 23.4209 146.706 24.9715C147.376 26.3658 147.573 26.4926 147.623 25.5606C147.674 24.5718 147.789 24.5221 148.311 25.2637C148.655 25.7535 148.944 25.9379 148.949 25.6739C148.954 25.4094 149.32 25.4023 149.765 25.6571C151.04 26.3881 152.329 26.6063 154.966 26.538C156.576 26.4968 157.539 26.7747 157.782 27.3504C158.154 28.2415 159.305 28.0048 159.305 27.0367ZM146.761 21.2058C146.555 20.8988 146.981 20.505 147.706 20.3303C148.513 20.137 148.94 20.2701 148.793 20.671C148.467 21.5642 147.224 21.8922 146.761 21.2058ZM140.29 19.563C140.06 19.0122 140.019 18.4281 140.198 18.2647C140.372 18.1013 140.707 18.4184 140.936 18.9692C141.17 19.5196 141.212 20.1041 141.033 20.2675C140.854 20.4305 140.524 20.1138 140.29 19.563ZM18.5383 25.0696C21.7493 23.0688 26.7008 21.805 34.9701 20.8752C39.486 20.3678 42.896 19.6653 43.9632 19.0235L45.6822 17.9893L43.6812 17.2169C40.0859 15.8289 32.0486 15.5341 27.3727 16.6189C22.0635 17.8507 13.1263 21.0188 11.8513 22.1209C10.9964 22.86 11.1322 23.167 12.9933 24.7053C15.5379 26.8084 15.7273 26.821 18.5383 25.0696ZM120.375 24.3238C120.541 23.3636 120.458 23.3249 119.862 24.0757C119.33 24.7441 119.261 24.2623 119.577 22.1462C119.843 20.3707 119.756 19.3255 119.344 19.3255C118.981 19.3255 118.834 18.7911 119.022 18.1379C119.22 17.4473 119.041 16.9499 118.601 16.9499C118.179 16.9499 117.972 16.7499 118.133 16.5048C118.293 16.2597 118.018 15.7118 117.514 15.2869C116.041 14.0353 115.762 15.7678 116.849 19.4042C117.371 21.1574 117.981 23.3451 118.206 24.2665C118.651 26.1068 120.059 26.1439 120.375 24.3238ZM137.189 25.145C138.281 24.1419 138.152 21.301 137.001 20.8946C136.07 20.5669 135.928 20.8584 135.075 24.8182C134.818 26.0095 136.038 26.1982 137.189 25.145ZM133.805 24.6034C134.048 24.2404 133.993 23.7725 133.681 23.5641C133.369 23.3556 133.084 22.8511 133.048 22.443C132.892 20.6705 132.713 20.4819 131.332 20.6562C128.613 20.9999 126.93 22.8882 129.342 22.8882C129.934 22.8882 130.241 23.0503 130.025 23.2487C129.429 23.7957 131.025 25.2153 132.268 25.241C132.869 25.2532 133.561 24.9664 133.805 24.6034ZM152.783 20.4158L151.999 19.0724L151.467 20.3867C151.178 21.1093 150.637 21.7006 150.27 21.7006C149.903 21.7006 149.605 21.9836 149.605 22.3293C149.605 22.6755 149.894 22.7934 150.252 22.5913C150.605 22.3896 150.903 22.574 150.907 23.0019C150.917 23.6306 151.022 23.6277 151.462 22.9867C151.875 22.39 152.137 22.5365 152.517 23.5805C153.017 24.9601 153.022 24.9588 153.292 23.3632C153.444 22.4809 153.21 21.1548 152.783 20.4158ZM158.929 20.4604C157.585 19.0947 155.109 18.8959 155.65 20.1972C155.852 20.6764 155.691 21.2521 155.297 21.4766C154.833 21.7406 154.765 21.6101 155.099 21.1068C155.448 20.5884 155.37 20.4726 154.865 20.7594C154.453 20.9956 154.278 21.442 154.489 21.7516C154.696 22.0607 155.136 22.16 155.471 21.9722C155.801 21.7844 156.072 22.08 156.072 22.6292C156.072 23.4491 156.246 23.4954 157.039 22.8882C157.837 22.2809 158.012 22.3272 158.012 23.1476C158.012 23.6967 158.301 23.981 158.658 23.7788C159.016 23.5771 159.346 23.762 159.401 24.1894C159.456 24.6169 159.622 24.208 159.773 23.2811C159.947 22.2228 159.631 21.1734 158.929 20.4604ZM170.299 22.8183C170.299 22.4915 170.01 22.3896 169.652 22.5913C169.299 22.7934 169.005 23.2255 169.005 23.5523C169.005 23.8787 169.299 23.981 169.652 23.7788C170.01 23.5771 170.299 23.1446 170.299 22.8183ZM272.613 23.4533C274.108 22.8271 277.36 18.8572 276.8 18.343C276.635 18.1914 274.328 17.5812 271.673 16.9866C269.017 16.3915 265.132 15.2162 263.036 14.3743C260.94 13.5329 258.789 12.7833 258.253 12.7088C257.285 12.574 251.318 13.2739 248.878 13.8096C248.163 13.9654 246.342 14.2931 244.828 14.5377C243.315 14.782 241.902 15.1395 241.691 15.332C241.2 15.7817 246.264 17.1588 253.157 18.4491C258.762 19.4981 269.104 22.5892 270.187 23.5371C270.943 24.2008 270.82 24.205 272.613 23.4533ZM170.945 20.8099C170.945 20.3202 170.702 19.9193 170.409 19.9193C170.111 19.9193 169.868 20.3202 169.868 20.8099C169.868 21.2997 170.111 21.7006 170.409 21.7006C170.702 21.7006 170.945 21.2997 170.945 20.8099ZM14.539 19.4185C18.0292 17.9825 25.0891 16.0799 31.2524 14.9142C32.1752 14.7399 33.208 13.9296 33.6575 13.028L34.4459 11.4471L28.1607 11.8042C19.6996 12.2847 14.0271 13.1935 10.7263 14.5967C9.21825 15.2381 7.54512 15.7624 7.00759 15.7624C6.47006 15.7624 6.03022 16.0205 6.03022 16.3355C6.03022 16.8573 9.78054 21.1068 10.2406 21.1068C10.3488 21.1068 12.2829 20.3471 14.539 19.4185ZM67.471 20.3046C67.471 20.19 67.1591 19.28 66.783 18.2824C65.9483 16.0912 64.233 15.3838 57.7707 14.5643C55.1014 14.2261 50.1526 13.546 46.777 13.0533C43.3963 12.5601 39.9405 12.0632 39.0961 11.9495C38.0362 11.8063 37.4661 12.0763 37.2542 12.8208C37.085 13.4138 36.5685 13.7654 36.1062 13.6024C35.6434 13.4394 35.0784 13.5839 34.85 13.9233C34.6216 14.2623 35.1013 14.6649 35.9163 14.8178C36.7309 14.9706 39.8717 15.5472 42.895 16.0993C69.8422 21.018 67.471 20.6124 67.471 20.3046ZM171.267 18.143C172.088 15.7746 172.253 13.981 171.647 13.981C170.996 13.981 170.542 15.0279 170.042 17.6924C169.693 19.5651 170.652 19.9188 171.267 18.143ZM226.405 17.4835C228.271 16.8985 229.799 16.5208 229.799 16.6438C229.799 16.7667 230.743 16.6063 231.899 16.2871C233.055 15.9679 239.072 14.7824 245.269 13.6521C251.465 12.5222 256.625 11.52 256.726 11.4248C256.831 11.3296 256.166 10.5114 255.253 9.6068C253.662 8.03222 253.41 7.97832 249.296 8.34764C243.072 8.90648 229.207 10.97 226.565 11.7301C224.212 12.4073 223.345 13.2226 220.91 17.0607L219.456 19.3465L221.231 18.9465C222.208 18.7262 224.533 18.068 226.405 17.4835ZM86.2249 18.1379C85.6929 17.8212 84.9636 17.5622 84.6105 17.5622C84.2527 17.5622 84.3995 17.8212 84.9315 18.1379C85.4636 18.4542 86.1928 18.7136 86.5506 18.7136C86.9037 18.7136 86.7569 18.4542 86.2249 18.1379ZM278.956 15.6141C280.786 12.8566 280.625 11.1254 278.465 10.3417C277.484 9.98665 276.181 9.45815 275.562 9.16673C274.943 8.87531 273.865 8.63653 273.163 8.63653C272.462 8.63653 269.375 8.09876 266.302 7.44181C261.72 6.46101 260.285 6.36626 258.294 6.91456L255.868 7.58246L257.868 9.53732C260.129 11.7465 265.334 14.0673 272.48 16.0529C275.149 16.7941 277.41 17.4329 277.502 17.4725C277.598 17.5117 278.25 16.6753 278.956 15.6141ZM257.973 8.81088C257.62 7.96442 257.693 7.8962 258.335 8.47819C258.776 8.88121 258.973 9.36045 258.776 9.54321C258.578 9.72598 258.216 9.39624 257.973 8.81088ZM106.02 13.5481C105.804 13.3506 105.648 13.7014 105.676 14.3276C105.708 15.0191 105.864 15.1597 106.07 14.6864C106.254 14.2577 106.231 13.7452 106.02 13.5481ZM10.4937 13.4116C12.2618 12.7715 16.856 11.968 20.7036 11.6257C24.5511 11.2833 28.8629 10.8361 30.2856 10.6318C32.6347 10.2949 32.7333 10.2132 31.3579 9.74451C30.5245 9.46067 29.5339 9.40382 29.1559 9.61817C28.7519 9.84726 28.6588 9.72556 28.9303 9.32212C29.5155 8.45293 19.8069 8.37375 15.2811 9.21095C13.574 9.52679 10.8019 9.9079 9.12055 10.0582C5.39775 10.3905 4.69098 10.7489 5.15375 12.0699C5.35005 12.6313 5.61927 13.4243 5.75182 13.8328C6.07654 14.8321 6.72827 14.7744 10.4937 13.4116ZM66.8197 13.9966C68.1406 13.228 67.1637 12.5382 63.4395 11.6193C61.6554 11.1789 60.5501 10.6087 60.7931 10.2524C61.0179 9.91591 60.9078 9.80936 60.5455 10.0153C60.1786 10.2208 56.5323 9.61817 52.4412 8.67528C42.1553 6.30688 37.1019 5.89839 35.4384 7.30031C34.7376 7.89073 33.6204 8.27395 32.9558 8.1514C32.2032 8.01285 31.9128 8.17414 32.1857 8.57968C32.4265 8.93764 33.064 9.23032 33.602 9.23032C34.14 9.23032 34.999 9.61565 35.5113 10.086C36.0241 10.5564 37.6766 11.079 39.1842 11.2475C43.0037 11.6737 55.5554 13.3775 59.0641 13.9448C63.2423 14.6215 65.7144 14.638 66.8197 13.9966ZM181.939 11.6059C182.779 11.1098 182.76 11.0289 181.815 11.0209C181.215 11.0159 180.545 11.2791 180.325 11.6059C179.816 12.3572 180.673 12.3572 181.939 11.6059ZM68.7644 10.4183C68.2323 10.1016 67.2096 9.86495 66.4987 9.89274C65.4346 9.93401 65.4896 10.0267 66.8243 10.4183C69.1083 11.0904 69.8972 11.0904 68.7644 10.4183ZM237.233 8.95743C242.214 8.14803 248.708 7.23799 251.667 6.9352C257.079 6.38142 259.441 5.6752 255.937 5.65836C254.643 5.65246 254.322 5.48991 254.919 5.14332C255.561 4.76937 255.35 4.53606 254.111 4.25012C253.189 4.03758 252.433 3.58929 252.433 3.25412C252.433 2.88337 251.483 2.78225 250.006 2.99589C241.503 4.2278 238.632 4.72473 234.147 5.74469C226.451 7.49487 223.419 9.11325 225.042 10.6053C225.276 10.8171 226.074 10.8643 226.822 10.7101C227.57 10.556 232.257 9.76725 237.233 8.95743ZM63.5909 9.23032C63.0542 8.91405 61.8939 8.68244 61.0041 8.71613C59.5135 8.77256 59.5365 8.81214 61.3252 9.23032C64.1229 9.88348 64.6916 9.88348 63.5909 9.23032ZM220.864 9.41856C220.396 9.24716 219.841 9.26822 219.626 9.46572C219.41 9.66281 219.791 9.80304 220.474 9.77736C221.227 9.74914 221.382 9.60806 220.864 9.41856ZM282.373 8.5801C282.731 8.05918 282.832 6.94404 282.602 6.10264C282.052 4.09169 279.506 3.4059 272.512 3.38644C269.508 3.37806 265.664 3.19626 263.972 2.98246C262.28 2.76861 259.991 2.7759 258.886 2.99859L256.877 3.4035L259.344 4.48047C260.702 5.07299 264.738 6.09464 268.315 6.75159C271.893 7.40812 275.819 8.35143 277.043 8.84794C279.74 9.93865 281.506 9.84979 282.373 8.5801ZM11.8513 8.66306C16.1864 8.10171 27.8956 7.29315 30.4126 7.38117C32.0105 7.43718 32.8475 6.59535 32.1802 5.60403C31.8716 5.14543 31.5633 5.19049 31.1602 5.75269C30.6855 6.41511 30.4741 6.39027 29.9732 5.61372C29.1408 4.32297 18.0861 4.13115 13.2658 5.32356C9.59158 6.23235 6.67736 7.70417 6.67736 8.65043C6.67736 9.34571 6.57784 9.34528 11.8513 8.66306ZM17.8334 3.46725C17.0331 3.32571 15.7236 3.32571 14.9233 3.46725C14.123 3.60879 14.7779 3.7246 16.3786 3.7246C17.9792 3.7246 18.6337 3.60879 17.8334 3.46725ZM173.946 122.354C173.745 121.866 173.855 121.462 174.203 121.462C174.547 121.462 174.827 121.866 174.827 122.354C174.827 122.843 174.712 123.243 174.575 123.243C174.433 123.243 174.153 122.843 173.946 122.354ZM133.301 17.8149C131.288 15.5943 129.88 14.5773 128.825 14.5773C128.201 14.5773 127.513 14.3103 127.293 13.9835C127.073 13.6572 125.908 13.3897 124.706 13.3897C122.12 13.3897 121.395 12.6519 122.881 11.5271C123.716 10.8916 124.005 10.8782 124.22 11.4635C124.372 11.8737 124.775 12.0497 125.119 11.8543C126.055 11.3225 132.577 14.4396 133.999 16.0988C134.682 16.8948 135.563 17.5466 135.957 17.5466C136.351 17.5466 136.672 17.8136 136.672 18.1404C136.672 19.0711 134.228 18.8353 133.301 17.8149ZM156.5 13.7178C156.004 12.5294 159.728 11.026 162.123 11.4467C163.943 11.7655 164.526 13.3897 162.824 13.3897C162.191 13.3897 161.999 13.1148 162.301 12.6473C162.604 12.1837 162.361 12.2249 161.646 12.7576C160.728 13.442 160.398 13.4601 159.99 12.8478C159.595 12.2666 159.169 12.3887 158.178 13.3624C157.082 14.4451 156.825 14.499 156.5 13.7178Z" fill="#5D5D5D"/>
</svg>
