<svg width="27" height="27" viewBox="0 0 27 27" fill="none" xmlns="http://www.w3.org/2000/svg">
<path fill-rule="evenodd" clip-rule="evenodd" d="M13.5001 0C6.11958 0 0.136475 5.9831 0.136475 13.3636C0.136475 20.7442 6.11958 26.7273 13.5001 26.7273C20.8806 26.7273 26.8637 20.7442 26.8637 13.3636C26.8637 5.9831 20.8806 0 13.5001 0ZM21.6819 11.6822C21.7949 12.2315 21.8524 12.7976 21.8524 13.3637C21.8524 13.9293 21.7949 14.4941 21.6819 15.0447C21.5718 15.5822 21.4087 16.11 21.195 16.6144C20.9862 17.11 20.7272 17.5875 20.4245 18.0328C20.1264 18.4754 19.783 18.8905 19.4057 19.269C19.0277 19.6458 18.6117 19.9887 18.17 20.2885C17.7238 20.5895 17.2462 20.8484 16.7511 21.0585C16.2466 21.2714 15.7184 21.4345 15.1821 21.5446C14.6315 21.658 14.0654 21.7159 13.4997 21.7159C12.9336 21.7159 12.3676 21.658 11.8178 21.5446C11.2807 21.4345 10.7525 21.2714 10.2484 21.0585C9.75327 20.8484 9.27526 20.5895 8.82908 20.2885C8.38738 19.9888 7.97138 19.6458 7.59412 19.269C7.21647 18.8905 6.87304 18.4754 6.5745 18.0328C6.27351 17.5875 6.0141 17.1099 5.80448 16.6144C5.59074 16.11 5.42722 15.5822 5.31669 15.0447C5.20495 14.4941 5.14784 13.9293 5.14784 13.3637C5.14784 12.7976 5.20492 12.2315 5.31672 11.6822C5.42725 11.1446 5.59078 10.6161 5.80451 10.1125C6.01413 9.61655 6.27354 9.13859 6.57453 8.69322C6.87307 8.25034 7.2165 7.83596 7.59415 7.45709C7.97142 7.08024 8.38742 6.73811 8.82911 6.43877C9.27529 6.13655 9.75331 5.87761 10.2484 5.66715C10.7525 5.45382 11.2807 5.29031 11.8178 5.18102C12.3676 5.06847 12.9337 5.01136 13.4998 5.01136C14.0654 5.01136 14.6315 5.06847 15.1821 5.18102C15.7184 5.29034 16.2466 5.45385 16.7511 5.66715C17.2462 5.87758 17.7238 6.13655 18.17 6.43877C18.6117 6.73811 19.0277 7.08024 19.4058 7.45709C19.783 7.83596 20.1265 8.25034 20.4246 8.69322C20.7272 9.13859 20.9862 9.61658 21.195 10.1125C21.4087 10.6161 21.5718 11.1446 21.6819 11.6822Z" fill="#353545"/>
<path fill-rule="evenodd" clip-rule="evenodd" d="M17.3971 8.27285L17.3977 8.272C16.3036 7.28223 14.8671 6.68185 13.2937 6.68185C12.7888 6.68185 12.2988 6.74456 11.8295 6.86048L11.8396 6.87438C11.9867 7.07659 13.119 8.63261 14.1525 10.5796C16.4781 9.6851 17.3677 8.31796 17.3971 8.27285ZM18.7288 9.46644C18.7039 9.50118 17.6763 10.9345 15.1704 11.9337C15.3187 12.2311 15.4622 12.5338 15.5948 12.8381C15.6419 12.9472 15.688 13.0542 15.7329 13.1611C17.8853 12.8967 20.0065 13.328 20.1742 13.3621L20.1818 13.3637C20.1671 11.8852 19.6254 10.5283 18.7291 9.46594L18.7288 9.46644ZM16.284 14.0313C17.1045 16.5043 17.4378 18.5184 17.5015 18.9319C18.906 17.8923 19.9035 16.2415 20.1818 14.3294C20.053 14.2839 18.303 13.6763 16.284 14.0313ZM14.8638 14.4773C15.7993 16.9057 16.1856 18.9391 16.284 19.5193C15.4861 19.8583 14.6091 20.0455 13.6884 20.0455C12.1465 20.0455 10.7309 19.5166 9.60221 18.64C9.61607 18.6099 10.8971 15.8575 14.8197 14.4917C14.8289 14.4884 14.8383 14.4854 14.8477 14.4825L14.8638 14.4773ZM13.527 12.25C13.714 12.6211 13.8929 12.9976 14.0568 13.3732C13.9709 13.3981 13.8843 13.4238 13.7992 13.4525C10.2756 14.6059 8.48879 17.8148 8.49104 17.8182C7.45092 16.6478 6.81812 15.0998 6.81812 13.4019C6.81812 13.3529 6.81971 13.305 6.82132 13.2566L6.82335 13.191C6.93907 13.1955 10.1651 13.2689 13.527 12.25ZM12.9431 10.914C11.7948 8.95272 10.568 7.35212 10.4796 7.23867C8.62952 8.07858 7.24868 9.7175 6.81812 11.6927C6.81996 11.6927 6.82208 11.6927 6.82449 11.6927C7.05124 11.6948 9.79124 11.7191 12.9431 10.914Z" fill="#353545"/>
</svg>
