<svg width="27" height="27" viewBox="0 0 27 27" fill="none" xmlns="http://www.w3.org/2000/svg">
<path fill-rule="evenodd" clip-rule="evenodd" d="M13.3636 0C5.9831 0 0 5.9831 0 13.3636C0 20.7442 5.9831 26.7273 13.3636 26.7273C20.7442 26.7273 26.7273 20.7442 26.7273 13.3636C26.7273 5.9831 20.7442 0 13.3636 0ZM6.41545 11.0683H9.44394V20.1677H6.41545V11.0683ZM9.6434 8.25355C9.62375 7.36136 8.98574 6.68182 7.94971 6.68182C6.91368 6.68182 6.23636 7.36136 6.23636 8.25355C6.23636 9.12725 6.89366 9.82636 7.9104 9.82636H7.92975C8.98574 9.82636 9.6434 9.12725 9.6434 8.25355ZM16.8789 10.8547C18.8718 10.8547 20.3658 12.1555 20.3658 14.9504L20.3657 20.1677H17.3373V15.2995C17.3373 14.0768 16.8991 13.2424 15.8028 13.2424C14.9661 13.2424 14.4677 13.8049 14.2489 14.3482C14.1688 14.5429 14.1491 14.8142 14.1491 15.0861V20.1679H11.1203C11.1203 20.1679 11.1602 11.9224 11.1203 11.0686H14.1491V12.3574C14.5511 11.7379 15.271 10.8547 16.8789 10.8547Z" fill="#353545"/>
</svg>
