<svg width="27" height="27" viewBox="0 0 27 27" fill="none" xmlns="http://www.w3.org/2000/svg">
<path fill-rule="evenodd" clip-rule="evenodd" d="M0.272705 13.3637C0.272705 5.98313 6.25581 3.05176e-05 13.6363 3.05176e-05C21.0169 3.05176e-05 27 5.98313 27 13.3637C27 20.7442 21.0169 26.7273 13.6363 26.7273C6.25581 26.7273 0.272705 20.7442 0.272705 13.3637ZM13.6363 5.56821C11.5191 5.56821 11.2541 5.57705 10.4225 5.61498C9.59258 5.65292 9.02559 5.78493 8.5298 5.97773C8.0101 6.17314 7.53874 6.47976 7.14896 6.87681C6.75255 7.26613 6.44574 7.73716 6.24989 8.25712C6.05812 8.75291 5.9256 9.32042 5.88766 10.1504C5.85024 10.9814 5.84089 11.2459 5.84089 13.3637C5.84089 15.4814 5.84972 15.746 5.88766 16.5775C5.9256 17.4074 6.0576 17.9744 6.25041 18.4702C6.44581 18.9899 6.75244 19.4613 7.14948 19.851C7.53882 20.2474 8.00985 20.5543 8.5298 20.7501C9.02559 20.9424 9.59258 21.0744 10.4225 21.1123C11.2541 21.1503 11.5191 21.1591 13.6363 21.1591C15.7536 21.1591 16.0186 21.1503 16.8501 21.1123C17.6801 21.0744 18.2471 20.9424 18.7429 20.7496C19.2626 20.5542 19.7339 20.2476 20.1237 19.8505C20.5201 19.4612 20.8269 18.9902 21.0228 18.4702C21.2151 17.9744 21.3471 17.4074 21.385 16.5775C21.423 15.746 21.4318 15.4809 21.4318 13.3637C21.4318 11.2464 21.423 10.9814 21.385 10.1499C21.3471 9.3199 21.2151 8.75291 21.0223 8.25712C20.8266 7.73694 20.5197 7.26571 20.1232 6.87629C19.7339 6.47988 19.2628 6.17307 18.7429 5.97721C18.2471 5.78545 17.6796 5.65292 16.8496 5.61498C16.0186 5.57757 15.7541 5.56821 13.6363 5.56821ZM13.6363 6.97295C15.7177 6.97295 15.9646 6.98075 16.7867 7.01817C17.5465 7.05299 17.9592 7.17927 18.2341 7.28685C18.5979 7.42769 18.8577 7.59711 19.1306 7.86943C19.4034 8.14227 19.5723 8.40212 19.7132 8.76591C19.8202 9.04083 19.947 9.45347 19.9818 10.2133C20.0193 11.0354 20.0271 11.2823 20.0271 13.3637C20.0271 15.4451 20.0193 15.6919 19.9818 16.5141C19.947 17.2739 19.8207 17.6865 19.7132 17.9614C19.5884 18.3 19.3893 18.6064 19.1306 18.8579C18.8791 19.1167 18.5727 19.3158 18.2341 19.4405C17.9592 19.5475 17.5465 19.6743 16.7867 19.7092C15.9646 19.7466 15.7182 19.7544 13.6363 19.7544C11.5544 19.7544 11.3081 19.7466 10.4859 19.7092C9.72614 19.6743 9.3135 19.5481 9.03858 19.4405C8.69998 19.3157 8.39364 19.1166 8.1421 18.8579C7.88339 18.6063 7.68432 18.3 7.55952 17.9614C7.45247 17.6865 7.32566 17.2739 7.29084 16.5141C7.25342 15.6919 7.24563 15.4451 7.24563 13.3637C7.24563 11.2823 7.25342 11.0354 7.29084 10.2133C7.32566 9.45347 7.45195 9.04083 7.55952 8.76591C7.70036 8.40212 7.86978 8.14227 8.1421 7.86943C8.39361 7.61064 8.69995 7.41156 9.03858 7.28685C9.3135 7.17979 9.72614 7.05299 10.4859 7.01817C11.3081 6.98075 11.555 6.97295 13.6363 6.97295ZM12.6614 15.6797C12.9677 15.8086 13.296 15.875 13.6275 15.875C14.297 15.875 14.9391 15.6047 15.4126 15.1237C15.886 14.6426 16.152 13.9901 16.152 13.3098C16.152 12.6294 15.886 11.977 15.4126 11.4959C14.9391 11.0148 14.297 10.7445 13.6275 10.7445C13.296 10.7445 12.9677 10.8109 12.6614 10.9398C12.3551 11.0687 12.0768 11.2577 11.8424 11.4959C11.608 11.7341 11.422 12.0169 11.2952 12.3281C11.1683 12.6393 11.103 12.9729 11.103 13.3098C11.103 13.6466 11.1683 13.9802 11.2952 14.2914C11.422 14.6027 11.608 14.8855 11.8424 15.1237C12.0768 15.3619 12.3551 15.5508 12.6614 15.6797ZM10.8776 10.5156C11.6069 9.77448 12.5961 9.35815 13.6275 9.35815C14.6589 9.35815 15.648 9.77448 16.3773 10.5156C17.1066 11.2566 17.5164 12.2617 17.5164 13.3098C17.5164 14.3578 17.1066 15.3629 16.3773 16.104C15.648 16.8451 14.6589 17.2614 13.6275 17.2614C12.5961 17.2614 11.6069 16.8451 10.8776 16.104C10.1483 15.3629 9.73861 14.3578 9.73861 13.3098C9.73861 12.2617 10.1483 11.2566 10.8776 10.5156ZM18.3785 9.94689C18.5509 9.77172 18.6477 9.53413 18.6477 9.28639C18.6477 9.03866 18.5509 8.80107 18.3785 8.62589C18.2061 8.45072 17.9723 8.3523 17.7285 8.3523C17.4846 8.3523 17.2508 8.45072 17.0784 8.62589C16.906 8.80107 16.8092 9.03866 16.8092 9.28639C16.8092 9.53413 16.906 9.77172 17.0784 9.94689C17.2508 10.1221 17.4846 10.2205 17.7285 10.2205C17.9723 10.2205 18.2061 10.1221 18.3785 9.94689Z" fill="#353545"/>
</svg>
