<svg width="81" height="81" viewBox="0 0 81 81" fill="none" xmlns="http://www.w3.org/2000/svg">
<path fill-rule="evenodd" clip-rule="evenodd" d="M40.6123 0C18.4594 0 0.500977 18.0714 0.500977 40.3636C0.500977 62.6559 18.4594 80.7273 40.6123 80.7273C62.7652 80.7273 80.7237 62.6559 80.7237 40.3636C80.7237 18.0714 62.7652 0 40.6123 0ZM65.1703 35.2849C65.5093 36.9442 65.6819 38.654 65.6819 40.3637C65.6819 42.0721 65.5093 43.7782 65.1703 45.4412C64.8397 47.0647 64.3501 48.6587 63.7086 50.1824C63.0819 51.6791 62.3046 53.1215 61.3962 54.4665C60.5014 55.8031 59.4706 57.0571 58.3383 58.2002C57.2034 59.3383 55.9548 60.3742 54.629 61.2797C53.2898 62.1886 51.8564 62.9708 50.3702 63.6053C48.856 64.2483 47.2706 64.741 45.6608 65.0735C44.0083 65.416 42.3091 65.5909 40.6112 65.5909C38.9121 65.5909 37.2129 65.416 35.5628 65.0735C33.9506 64.741 32.3653 64.2483 30.8522 63.6053C29.3661 62.9708 27.9313 62.1886 26.5921 61.2797C25.2663 60.3743 24.0177 59.3383 22.8853 58.2002C21.7518 57.0571 20.721 55.8031 19.8249 54.4665C18.9215 53.1215 18.1429 51.679 17.5137 50.1824C16.8721 48.6587 16.3813 47.0646 16.0496 45.4412C15.7142 43.7782 15.5427 42.0721 15.5427 40.3637C15.5427 38.654 15.7141 36.9442 16.0497 35.2849C16.3814 33.6613 16.8722 32.065 17.5138 30.5437C18.143 29.0459 18.9216 27.6023 19.825 26.2571C20.7211 24.9194 21.7519 23.6678 22.8854 22.5234C24.0178 21.3852 25.2664 20.3518 26.5922 19.4477C27.9314 18.5349 29.3662 17.7528 30.8523 17.1171C32.3654 16.4728 33.9506 15.9789 35.5629 15.6488C37.213 15.3089 38.9122 15.1364 40.6113 15.1364C42.3092 15.1364 44.0083 15.3089 45.6609 15.6488C47.2707 15.979 48.856 16.4729 50.3703 17.1171C51.8564 17.7527 53.2899 18.5349 54.6291 19.4477C55.9549 20.3518 57.2036 21.3852 58.3384 22.5234C59.4707 23.6678 60.5015 24.9194 61.3963 26.2571C62.3046 27.6023 63.0819 29.046 63.7086 30.5437C64.3501 32.065 64.8397 33.6613 65.1703 35.2849Z" fill="#F5F5ED"/>
<path fill-rule="evenodd" clip-rule="evenodd" d="M52.3093 24.9874L52.311 24.9848C49.0272 21.9953 44.7154 20.1819 39.993 20.1819C38.4774 20.1819 37.0067 20.3714 35.5979 20.7215L35.6282 20.7634C36.0699 21.3742 39.4686 26.074 42.5706 31.9547C49.5509 29.2529 52.2213 25.1236 52.3093 24.9874ZM56.3063 28.5925C56.2317 28.6973 53.1476 33.0265 45.6258 36.0446C46.0708 36.943 46.5017 37.8573 46.8996 38.7762C47.0411 39.1058 47.1793 39.429 47.3141 39.7521C53.7747 38.9533 60.1415 40.2561 60.6448 40.3591L60.6675 40.3638C60.6237 35.8981 58.9977 31.7997 56.3074 28.591L56.3063 28.5925ZM48.9684 42.3803C51.431 49.8499 52.4316 55.9331 52.6227 57.1819C56.8383 54.042 59.8323 49.0561 60.6675 43.2808C60.2811 43.1433 55.0284 41.3079 48.9684 42.3803ZM44.7056 43.7274C47.5136 51.062 48.6729 57.204 48.9684 58.9562C46.5734 59.9801 43.9411 60.5456 41.1776 60.5456C36.5496 60.5456 32.3004 58.9481 28.9127 56.3003C28.9543 56.2096 32.7992 47.8962 44.5732 43.771C44.6009 43.7608 44.6289 43.7519 44.6571 43.743C44.6732 43.7379 44.6894 43.7328 44.7056 43.7274ZM40.693 37.0001C41.2544 38.121 41.7913 39.258 42.2831 40.3925C42.0254 40.4678 41.7654 40.5455 41.51 40.6322C30.9339 44.1159 25.5707 53.808 25.5775 53.8183C22.4555 50.2831 20.5562 45.6077 20.5562 40.4792C20.5562 40.3312 20.5609 40.1864 20.5658 40.0404C20.5679 39.9748 20.5701 39.9089 20.5719 39.8423C20.9192 39.856 30.6022 40.0774 40.693 37.0001ZM38.9405 32.9649C35.4939 27.0409 31.8116 22.2064 31.5463 21.8638C25.9931 24.4006 21.8485 29.3508 20.5562 35.3167C20.5617 35.3167 20.5681 35.3168 20.5753 35.3169C21.2559 35.323 29.4801 35.3966 38.9405 32.9649Z" fill="#F5F5ED"/>
</svg>
