<svg width="81" height="81" viewBox="0 0 81 81" fill="none" xmlns="http://www.w3.org/2000/svg">
<path fill-rule="evenodd" clip-rule="evenodd" d="M0.00292969 40.3636C0.00292969 18.0714 17.9614 0 40.1143 0C62.2672 0 80.2257 18.0714 80.2257 40.3636C80.2257 62.6559 62.2672 80.7273 40.1143 80.7273C17.9614 80.7273 0.00292969 62.6559 0.00292969 40.3636ZM40.1143 16.8182C33.7593 16.8182 32.9638 16.8449 30.468 16.9595C27.9768 17.074 26.275 17.4727 24.7868 18.0551C23.227 18.6453 21.8121 19.5714 20.6422 20.7707C19.4524 21.9466 18.5315 23.3693 17.9436 24.9398C17.368 26.4373 16.9703 28.1514 16.8564 30.6582C16.7441 33.1681 16.716 33.9671 16.716 40.3636C16.716 46.7602 16.7425 47.5591 16.8564 50.0706C16.9703 52.5774 17.3665 54.29 17.9452 55.7875C18.5317 57.3572 19.452 58.7809 20.6438 59.9582C21.8124 61.1555 23.2262 62.0821 24.7868 62.6737C26.275 63.2545 27.9768 63.6532 30.468 63.7678C32.9638 63.8824 33.7593 63.9091 40.1143 63.9091C46.4693 63.9091 47.2648 63.8824 49.7606 63.7678C52.2518 63.6532 53.9536 63.2545 55.4417 62.6722C57.0016 62.082 58.4164 61.1558 59.5864 59.9566C60.7762 58.7807 61.6971 57.358 62.285 55.7875C62.8621 54.29 63.2583 52.5774 63.3722 50.0706C63.4861 47.5591 63.5126 46.7586 63.5126 40.3636C63.5126 33.9687 63.4861 33.1681 63.3722 30.6566C63.2583 28.1498 62.8621 26.4373 62.2834 24.9398C61.696 23.3686 60.775 21.9453 59.5848 20.7691C58.4162 19.5718 57.0024 18.6451 55.4417 18.0535C53.9536 17.4743 52.2502 17.074 49.7591 16.9595C47.2648 16.8464 46.4708 16.8182 40.1143 16.8182ZM40.1143 21.0611C46.3616 21.0611 47.1026 21.0846 49.5703 21.1976C51.8509 21.3028 53.0894 21.6842 53.9146 22.0092C55.0065 22.4346 55.7865 22.9463 56.6054 23.7688C57.4244 24.5929 57.9313 25.3777 58.354 26.4765C58.6754 27.3069 59.056 28.5532 59.1605 30.8481C59.2728 33.3314 59.2962 34.077 59.2962 40.3636C59.2962 46.6503 59.2728 47.3959 59.1605 49.8791C59.056 52.174 58.6769 53.4204 58.354 54.2507C57.9796 55.2735 57.382 56.1987 56.6054 56.9585C55.8506 57.7402 54.931 58.3415 53.9146 58.7181C53.0894 59.0415 51.8509 59.4245 49.5703 59.5296C47.1026 59.6427 46.3632 59.6662 40.1143 59.6662C33.8654 59.6662 33.126 59.6427 30.6583 59.5296C28.3777 59.4245 27.1392 59.043 26.314 58.7181C25.2976 58.3413 24.3782 57.74 23.6232 56.9585C22.8466 56.1987 22.2491 55.2734 21.8745 54.2507C21.5532 53.4204 21.1726 52.174 21.0681 49.8791C20.9558 47.3959 20.9324 46.6503 20.9324 40.3636C20.9324 34.077 20.9558 33.3314 21.0681 30.8481C21.1726 28.5532 21.5516 27.3069 21.8745 26.4765C22.2973 25.3777 22.8058 24.5929 23.6232 23.7688C24.3781 22.9872 25.2976 22.3859 26.314 22.0092C27.1392 21.6858 28.3777 21.3028 30.6583 21.1976C33.126 21.0846 33.867 21.0611 40.1143 21.0611ZM37.188 47.3591C38.1073 47.7485 39.0926 47.9489 40.0877 47.9489C42.0973 47.9489 44.0247 47.1326 45.4457 45.6795C46.8667 44.2265 47.665 42.2558 47.665 40.2008C47.665 38.1459 46.8667 36.1752 45.4457 34.7222C44.0247 33.2691 42.0973 32.4528 40.0877 32.4528C39.0926 32.4528 38.1073 32.6532 37.188 33.0426C36.2687 33.432 35.4333 34.0027 34.7297 34.7222C34.0261 35.4416 33.468 36.2958 33.0872 37.2358C32.7064 38.1758 32.5104 39.1834 32.5104 40.2008C32.5104 41.2183 32.7064 42.2259 33.0872 43.1659C33.468 44.1059 34.0261 44.9601 34.7297 45.6795C35.4333 46.399 36.2687 46.9697 37.188 47.3591ZM31.834 31.7612C34.023 29.5228 36.9919 28.2653 40.0877 28.2653C43.1835 28.2653 46.1524 29.5228 48.3414 31.7612C50.5305 33.9995 51.7603 37.0354 51.7603 40.2008C51.7603 43.3663 50.5305 46.4022 48.3414 48.6405C46.1524 50.8789 43.1835 52.1364 40.0877 52.1364C36.9919 52.1364 34.023 50.8789 31.834 48.6405C29.6449 46.4022 28.4151 43.3663 28.4151 40.2008C28.4151 37.0354 29.6449 33.9995 31.834 31.7612ZM54.3479 30.0436C54.8654 29.5145 55.1561 28.7969 55.1561 28.0486C55.1561 27.3003 54.8654 26.5827 54.3479 26.0536C53.8305 25.5245 53.1287 25.2273 52.3969 25.2273C51.6651 25.2273 50.9633 25.5245 50.4459 26.0536C49.9284 26.5827 49.6377 27.3003 49.6377 28.0486C49.6377 28.7969 49.9284 29.5145 50.4459 30.0436C50.9633 30.5727 51.6651 30.8699 52.3969 30.8699C53.1287 30.8699 53.8305 30.5727 54.3479 30.0436Z" fill="#F5F5ED"/>
</svg>
