<svg width="81" height="81" viewBox="0 0 81 81" fill="none" xmlns="http://www.w3.org/2000/svg">
<path fill-rule="evenodd" clip-rule="evenodd" d="M40.1114 0C17.9585 0 0 18.0714 0 40.3636C0 62.6559 17.9585 80.7273 40.1114 80.7273C62.2643 80.7273 80.2227 62.6559 80.2227 40.3636C80.2227 18.0714 62.2643 0 40.1114 0ZM19.2562 33.4309H28.3463V60.9147H19.2562V33.4309ZM28.945 24.9291C28.886 22.2343 26.971 20.1818 23.8613 20.1818C20.7516 20.1818 18.7186 22.2343 18.7186 24.9291C18.7186 27.568 20.6915 29.6796 23.7433 29.6796H23.8014C26.971 29.6796 28.945 27.568 28.945 24.9291ZM50.6626 32.7856C56.6443 32.7856 61.1287 36.7145 61.1287 45.1564L61.1283 60.9147H52.0386V46.2109C52.0386 42.5176 50.7232 39.9974 47.4325 39.9974C44.9212 39.9974 43.4254 41.6964 42.7684 43.3373C42.528 43.9254 42.469 44.7448 42.469 45.5662V60.9154H33.3778C33.3778 60.9154 33.4976 36.0106 33.3778 33.4317H42.469V37.3245C43.6755 35.4531 45.8363 32.7856 50.6626 32.7856Z" fill="#F5F5ED"/>
</svg>
